<svg width="313" height="88" viewBox="0 0 313 88" fill="none" xmlns="http://www.w3.org/2000/svg">
<path d="M10.101 68.047C10.129 67.641 10.15 67.284 10.164 66.976C10.178 66.654 10.185 66.339 10.185 66.031C10.185 65.723 10.178 65.422 10.164 65.128C10.15 64.834 10.122 64.54 10.08 64.246L8.211 63.679L8.442 62.902C8.918 62.93 9.436 62.951 9.996 62.965C10.556 62.979 11.144 62.986 11.76 62.986C12.292 62.986 12.803 62.979 13.293 62.965C13.797 62.951 14.301 62.93 14.805 62.902L15.078 63.679L13.23 64.246C13.216 64.582 13.202 64.925 13.188 65.275C13.174 65.611 13.174 65.961 13.188 66.325C13.188 66.745 13.202 67.186 13.23 67.648C13.272 68.096 13.3 68.586 13.314 69.118C12.502 69.37 11.683 69.608 10.857 69.832C10.031 70.042 9.051 70.147 7.917 70.147C6.657 70.147 5.579 69.951 4.683 69.559C3.801 69.153 3.087 68.621 2.541 67.963C1.995 67.291 1.589 66.542 1.323 65.716C1.071 64.876 0.945 64.015 0.945 63.133C0.945 62.209 1.085 61.32 1.365 60.466C1.645 59.598 2.072 58.821 2.646 58.135C3.22 57.449 3.955 56.91 4.851 56.518C5.761 56.112 6.832 55.909 8.064 55.909C8.946 55.909 9.793 55.986 10.605 56.14C11.431 56.28 12.264 56.546 13.104 56.938C12.964 57.582 12.831 58.219 12.705 58.849C12.579 59.479 12.467 60.123 12.369 60.781H10.962L10.542 58.009C9.87 57.729 9.24 57.533 8.652 57.421C8.064 57.309 7.364 57.253 6.552 57.253C5.782 57.813 5.215 58.562 4.851 59.5C4.487 60.438 4.305 61.523 4.305 62.755C4.305 63.511 4.375 64.253 4.515 64.981C4.669 65.709 4.893 66.367 5.187 66.955C5.495 67.543 5.88 68.012 6.342 68.362C6.818 68.712 7.378 68.887 8.022 68.887C8.442 68.887 8.813 68.817 9.135 68.677C9.457 68.523 9.779 68.313 10.101 68.047ZM20.3969 60.823C21.0969 60.823 21.7409 60.977 22.3289 61.285C22.9309 61.593 23.4069 62.062 23.7569 62.692C24.1209 63.308 24.3029 64.085 24.3029 65.023C23.9949 65.079 23.5889 65.128 23.0849 65.17C22.5809 65.212 22.0279 65.247 21.4259 65.275C20.8239 65.289 20.2219 65.296 19.6199 65.296C19.1719 65.296 18.7869 65.289 18.4649 65.275C18.1429 65.261 17.9259 65.247 17.8139 65.233V64.225C17.9679 64.225 18.1989 64.225 18.5069 64.225C18.8289 64.225 19.1859 64.218 19.5779 64.204C19.9699 64.19 20.3479 64.169 20.7119 64.141C21.0899 64.113 21.4049 64.078 21.6569 64.036C21.6429 63.742 21.5589 63.448 21.4049 63.154C21.2649 62.846 21.0479 62.587 20.7539 62.377C20.4599 62.167 20.0819 62.062 19.6199 62.062C19.3399 62.328 19.1159 62.699 18.9479 63.175C18.7799 63.637 18.6959 64.176 18.6959 64.792C18.6959 66.052 18.9549 66.983 19.4729 67.585C20.0049 68.173 20.6559 68.467 21.4259 68.467C22.2099 68.467 23.0359 68.187 23.9039 67.627L24.3659 68.593C23.7639 69.139 23.1199 69.531 22.4339 69.769C21.7479 70.007 21.0689 70.126 20.3969 70.126C19.6129 70.126 18.8779 69.958 18.1919 69.622C17.5199 69.272 16.9739 68.754 16.5539 68.068C16.1479 67.382 15.9449 66.528 15.9449 65.506C15.9449 64.47 16.1549 63.609 16.5749 62.923C17.0089 62.223 17.5619 61.698 18.2339 61.348C18.9199 60.998 19.6409 60.823 20.3969 60.823ZM30.1499 60.886C31.1859 60.886 32.0469 61.103 32.7329 61.537C33.4329 61.971 33.9509 62.538 34.2869 63.238C34.6369 63.938 34.8119 64.694 34.8119 65.506C34.8119 66.332 34.6369 67.109 34.2869 67.837C33.9369 68.551 33.4119 69.125 32.7119 69.559C32.0119 69.993 31.1369 70.21 30.0869 70.21C29.0369 70.21 28.1549 69.993 27.4409 69.559C26.7269 69.111 26.1879 68.523 25.8239 67.795C25.4599 67.067 25.2779 66.29 25.2779 65.464C25.2779 64.652 25.4529 63.903 25.8029 63.217C26.1669 62.517 26.7059 61.957 27.4199 61.537C28.1479 61.103 29.0579 60.886 30.1499 60.886ZM28.2179 65.023C28.2179 65.723 28.2949 66.388 28.4489 67.018C28.6169 67.648 28.8619 68.159 29.1839 68.551C29.5059 68.943 29.8909 69.139 30.3389 69.139C30.8709 69.139 31.2629 68.852 31.5149 68.278C31.7809 67.69 31.9139 66.962 31.9139 66.094C31.9139 65.394 31.8299 64.736 31.6619 64.12C31.5079 63.49 31.2699 62.979 30.9479 62.587C30.6399 62.181 30.2549 61.978 29.7929 61.978C29.2609 61.978 28.8619 62.272 28.5959 62.86C28.3439 63.434 28.2179 64.155 28.2179 65.023ZM40.123 60.886C40.137 61.208 40.158 61.586 40.186 62.02C40.214 62.454 40.242 62.853 40.27 63.217C40.298 63.567 40.312 63.805 40.312 63.931L40.459 68.698L42.538 69.223L42.223 70C41.985 69.986 41.67 69.979 41.278 69.979C40.886 69.965 40.48 69.958 40.06 69.958C39.64 69.944 39.262 69.937 38.926 69.937C38.492 69.937 38.023 69.944 37.519 69.958C37.015 69.972 36.553 69.986 36.133 70L35.818 69.223L37.519 68.782C37.519 68.152 37.519 67.592 37.519 67.102C37.519 66.598 37.519 66.052 37.519 65.464C37.519 65.142 37.512 64.848 37.498 64.582C37.498 64.302 37.491 63.994 37.477 63.658C37.463 63.308 37.435 62.881 37.393 62.377L35.965 62.146L35.671 61.264C35.993 61.25 36.42 61.229 36.952 61.201C37.498 61.173 38.058 61.131 38.632 61.075C39.206 61.019 39.703 60.956 40.123 60.886ZM42.937 60.844C43.329 60.844 43.693 60.921 44.029 61.075C44.365 61.215 44.687 61.446 44.995 61.768C44.911 62.188 44.834 62.552 44.764 62.86C44.694 63.168 44.61 63.476 44.512 63.784C44.428 64.078 44.323 64.442 44.197 64.876H43.021C42.923 64.358 42.776 63.91 42.58 63.532C42.398 63.14 42.146 62.874 41.824 62.734C41.474 62.958 41.138 63.378 40.816 63.994C40.508 64.596 40.354 65.401 40.354 66.409L39.535 65.191C39.647 64.407 39.864 63.686 40.186 63.028C40.508 62.37 40.9 61.845 41.362 61.453C41.838 61.047 42.363 60.844 42.937 60.844ZM50.2538 60.886C50.2678 61.208 50.2888 61.586 50.3168 62.02C50.3448 62.454 50.3728 62.853 50.4008 63.217C50.4288 63.567 50.4428 63.805 50.4428 63.931L50.5898 68.698L52.6688 69.223L52.3538 70C52.1158 69.986 51.8008 69.979 51.4088 69.979C51.0168 69.965 50.6108 69.958 50.1908 69.958C49.7708 69.944 49.3928 69.937 49.0568 69.937C48.6228 69.937 48.1538 69.944 47.6498 69.958C47.1458 69.972 46.6838 69.986 46.2638 70L45.9488 69.223L47.6498 68.782C47.6498 68.152 47.6498 67.592 47.6498 67.102C47.6498 66.598 47.6498 66.052 47.6498 65.464C47.6498 65.142 47.6428 64.848 47.6288 64.582C47.6288 64.302 47.6218 63.994 47.6078 63.658C47.5938 63.308 47.5658 62.881 47.5238 62.377L46.0958 62.146L45.8018 61.264C46.1238 61.25 46.5508 61.229 47.0828 61.201C47.6288 61.173 48.1888 61.131 48.7628 61.075C49.3368 61.019 49.8338 60.956 50.2538 60.886ZM53.0678 60.844C53.4598 60.844 53.8238 60.921 54.1598 61.075C54.4958 61.215 54.8178 61.446 55.1258 61.768C55.0418 62.188 54.9648 62.552 54.8948 62.86C54.8248 63.168 54.7408 63.476 54.6428 63.784C54.5588 64.078 54.4538 64.442 54.3278 64.876H53.1518C53.0538 64.358 52.9068 63.91 52.7108 63.532C52.5288 63.14 52.2768 62.874 51.9548 62.734C51.6048 62.958 51.2688 63.378 50.9468 63.994C50.6388 64.596 50.4848 65.401 50.4848 66.409L49.6658 65.191C49.7778 64.407 49.9948 63.686 50.3168 63.028C50.6388 62.37 51.0308 61.845 51.4928 61.453C51.9688 61.047 52.4938 60.844 53.0678 60.844ZM60.4897 60.823C61.1897 60.823 61.8337 60.977 62.4217 61.285C63.0237 61.593 63.4997 62.062 63.8497 62.692C64.2137 63.308 64.3957 64.085 64.3957 65.023C64.0877 65.079 63.6817 65.128 63.1777 65.17C62.6737 65.212 62.1207 65.247 61.5187 65.275C60.9167 65.289 60.3147 65.296 59.7127 65.296C59.2647 65.296 58.8797 65.289 58.5577 65.275C58.2357 65.261 58.0187 65.247 57.9067 65.233V64.225C58.0607 64.225 58.2917 64.225 58.5997 64.225C58.9217 64.225 59.2787 64.218 59.6707 64.204C60.0627 64.19 60.4407 64.169 60.8047 64.141C61.1827 64.113 61.4977 64.078 61.7497 64.036C61.7357 63.742 61.6517 63.448 61.4977 63.154C61.3577 62.846 61.1407 62.587 60.8467 62.377C60.5527 62.167 60.1747 62.062 59.7127 62.062C59.4327 62.328 59.2087 62.699 59.0407 63.175C58.8727 63.637 58.7887 64.176 58.7887 64.792C58.7887 66.052 59.0477 66.983 59.5657 67.585C60.0977 68.173 60.7487 68.467 61.5187 68.467C62.3027 68.467 63.1287 68.187 63.9967 67.627L64.4587 68.593C63.8567 69.139 63.2127 69.531 62.5267 69.769C61.8407 70.007 61.1617 70.126 60.4897 70.126C59.7057 70.126 58.9707 69.958 58.2847 69.622C57.6127 69.272 57.0667 68.754 56.6467 68.068C56.2407 67.382 56.0377 66.528 56.0377 65.506C56.0377 64.47 56.2477 63.609 56.6677 62.923C57.1017 62.223 57.6547 61.698 58.3267 61.348C59.0127 60.998 59.7337 60.823 60.4897 60.823ZM67.1347 60.445C67.2047 58.975 67.4777 57.792 67.9537 56.896C68.4437 56 69.0387 55.349 69.7387 54.943C70.4527 54.537 71.1737 54.334 71.9017 54.334C73.1617 54.334 74.0437 54.656 74.5477 55.3C74.5197 55.818 74.4357 56.266 74.2957 56.644C74.1557 57.022 73.9667 57.393 73.7287 57.757H72.5947C72.3707 57.029 72.1047 56.49 71.7967 56.14C71.5027 55.79 71.1737 55.587 70.8097 55.531C70.5017 55.881 70.2637 56.399 70.0957 57.085C69.9277 57.757 69.8437 58.653 69.8437 59.773C69.8437 60.277 69.8437 60.886 69.8437 61.6C69.8437 62.3 69.8437 63.056 69.8437 63.868C69.8577 64.68 69.8717 65.492 69.8857 66.304C69.8997 67.116 69.9137 67.872 69.9277 68.572L72.1117 69.223L71.7967 70C71.5587 69.986 71.2437 69.979 70.8517 69.979C70.4597 69.965 70.0537 69.958 69.6337 69.958C69.2137 69.944 68.8357 69.937 68.4997 69.937C68.0797 69.951 67.5827 69.965 67.0087 69.979C66.4487 69.979 65.9517 69.986 65.5177 70L65.1607 69.223L66.9877 68.782C67.0157 67.844 67.0297 66.969 67.0297 66.157C67.0297 65.345 67.0297 64.491 67.0297 63.595C67.0437 62.699 67.0787 61.649 67.1347 60.445ZM65.4757 61.18H72.0697L72.3217 62.86C71.1317 62.734 69.9277 62.615 68.7097 62.503C67.4917 62.377 66.3017 62.314 65.1397 62.314L65.4757 61.18ZM76.9985 60.823C77.6985 60.823 78.3425 60.977 78.9305 61.285C79.5325 61.593 80.0085 62.062 80.3585 62.692C80.7225 63.308 80.9045 64.085 80.9045 65.023C80.5965 65.079 80.1905 65.128 79.6865 65.17C79.1825 65.212 78.6295 65.247 78.0275 65.275C77.4255 65.289 76.8235 65.296 76.2215 65.296C75.7735 65.296 75.3885 65.289 75.0665 65.275C74.7445 65.261 74.5275 65.247 74.4155 65.233V64.225C74.5695 64.225 74.8005 64.225 75.1085 64.225C75.4305 64.225 75.7875 64.218 76.1795 64.204C76.5715 64.19 76.9495 64.169 77.3135 64.141C77.6915 64.113 78.0065 64.078 78.2585 64.036C78.2445 63.742 78.1605 63.448 78.0065 63.154C77.8665 62.846 77.6495 62.587 77.3555 62.377C77.0615 62.167 76.6835 62.062 76.2215 62.062C75.9415 62.328 75.7175 62.699 75.5495 63.175C75.3815 63.637 75.2975 64.176 75.2975 64.792C75.2975 66.052 75.5565 66.983 76.0745 67.585C76.6065 68.173 77.2575 68.467 78.0275 68.467C78.8115 68.467 79.6375 68.187 80.5055 67.627L80.9675 68.593C80.3655 69.139 79.7215 69.531 79.0355 69.769C78.3495 70.007 77.6705 70.126 76.9985 70.126C76.2145 70.126 75.4795 69.958 74.7935 69.622C74.1215 69.272 73.5755 68.754 73.1555 68.068C72.7495 67.382 72.5465 66.528 72.5465 65.506C72.5465 64.47 72.7565 63.609 73.1765 62.923C73.6105 62.223 74.1635 61.698 74.8355 61.348C75.5215 60.998 76.2425 60.823 76.9985 60.823ZM86.1425 60.886C86.1565 61.208 86.1775 61.586 86.2055 62.02C86.2335 62.454 86.2615 62.853 86.2895 63.217C86.3175 63.567 86.3315 63.805 86.3315 63.931L86.4785 68.698L88.5575 69.223L88.2425 70C88.0045 69.986 87.6895 69.979 87.2975 69.979C86.9055 69.965 86.4995 69.958 86.0795 69.958C85.6595 69.944 85.2815 69.937 84.9455 69.937C84.5115 69.937 84.0425 69.944 83.5385 69.958C83.0345 69.972 82.5725 69.986 82.1525 70L81.8375 69.223L83.5385 68.782C83.5385 68.152 83.5385 67.592 83.5385 67.102C83.5385 66.598 83.5385 66.052 83.5385 65.464C83.5385 65.142 83.5315 64.848 83.5175 64.582C83.5175 64.302 83.5105 63.994 83.4965 63.658C83.4825 63.308 83.4545 62.881 83.4125 62.377L81.9845 62.146L81.6905 61.264C82.0125 61.25 82.4395 61.229 82.9715 61.201C83.5175 61.173 84.0775 61.131 84.6515 61.075C85.2255 61.019 85.7225 60.956 86.1425 60.886ZM88.9565 60.844C89.3485 60.844 89.7125 60.921 90.0485 61.075C90.3845 61.215 90.7065 61.446 91.0145 61.768C90.9305 62.188 90.8535 62.552 90.7835 62.86C90.7135 63.168 90.6295 63.476 90.5315 63.784C90.4475 64.078 90.3425 64.442 90.2165 64.876H89.0405C88.9425 64.358 88.7955 63.91 88.5995 63.532C88.4175 63.14 88.1655 62.874 87.8435 62.734C87.4935 62.958 87.1575 63.378 86.8355 63.994C86.5275 64.596 86.3735 65.401 86.3735 66.409L85.5545 65.191C85.6665 64.407 85.8835 63.686 86.2055 63.028C86.5275 62.37 86.9195 61.845 87.3815 61.453C87.8575 61.047 88.3825 60.844 88.9565 60.844ZM96.3784 60.823C97.0784 60.823 97.7224 60.977 98.3104 61.285C98.9124 61.593 99.3884 62.062 99.7384 62.692C100.102 63.308 100.284 64.085 100.284 65.023C99.9764 65.079 99.5704 65.128 99.0664 65.17C98.5624 65.212 98.0094 65.247 97.4074 65.275C96.8054 65.289 96.2034 65.296 95.6014 65.296C95.1534 65.296 94.7684 65.289 94.4464 65.275C94.1244 65.261 93.9074 65.247 93.7954 65.233V64.225C93.9494 64.225 94.1804 64.225 94.4884 64.225C94.8104 64.225 95.1674 64.218 95.5594 64.204C95.9514 64.19 96.3294 64.169 96.6934 64.141C97.0714 64.113 97.3864 64.078 97.6384 64.036C97.6244 63.742 97.5404 63.448 97.3864 63.154C97.2464 62.846 97.0294 62.587 96.7354 62.377C96.4414 62.167 96.0634 62.062 95.6014 62.062C95.3214 62.328 95.0974 62.699 94.9294 63.175C94.7614 63.637 94.6774 64.176 94.6774 64.792C94.6774 66.052 94.9364 66.983 95.4544 67.585C95.9864 68.173 96.6374 68.467 97.4074 68.467C98.1914 68.467 99.0174 68.187 99.8854 67.627L100.347 68.593C99.7454 69.139 99.1014 69.531 98.4154 69.769C97.7294 70.007 97.0504 70.126 96.3784 70.126C95.5944 70.126 94.8594 69.958 94.1734 69.622C93.5014 69.272 92.9554 68.754 92.5354 68.068C92.1294 67.382 91.9264 66.528 91.9264 65.506C91.9264 64.47 92.1364 63.609 92.5564 62.923C92.9904 62.223 93.5434 61.698 94.2154 61.348C94.9014 60.998 95.6224 60.823 96.3784 60.823ZM109.659 68.551C109.183 68.985 108.616 69.356 107.958 69.664C107.314 69.972 106.572 70.126 105.732 70.126C104.724 70.126 103.877 69.902 103.191 69.454C102.519 69.006 102.015 68.432 101.679 67.732C101.343 67.032 101.175 66.297 101.175 65.527C101.175 64.743 101.35 63.994 101.7 63.28C102.05 62.566 102.575 61.985 103.275 61.537C103.989 61.075 104.892 60.844 105.984 60.844C106.572 60.844 107.146 60.914 107.706 61.054C108.28 61.18 108.826 61.404 109.344 61.726C109.148 62.454 109.008 63.056 108.924 63.532C108.84 63.994 108.756 64.435 108.672 64.855H107.622L107.307 62.944C106.957 62.65 106.558 62.419 106.11 62.251C105.662 62.083 105.214 62.013 104.766 62.041C104.472 62.391 104.241 62.804 104.073 63.28C103.919 63.756 103.842 64.246 103.842 64.75C103.842 65.506 103.975 66.157 104.241 66.703C104.507 67.249 104.857 67.676 105.291 67.984C105.739 68.278 106.222 68.425 106.74 68.425C107.09 68.425 107.461 68.355 107.853 68.215C108.259 68.061 108.672 67.83 109.092 67.522L109.659 68.551ZM114.649 60.865C114.635 61.677 114.614 62.454 114.586 63.196C114.572 63.938 114.565 64.61 114.565 65.212C114.565 65.73 114.572 66.325 114.586 66.997C114.614 67.669 114.635 68.264 114.649 68.782L116.329 69.223L115.972 70C115.608 69.972 115.237 69.958 114.859 69.958C114.495 69.944 113.942 69.937 113.2 69.937C112.514 69.937 111.975 69.944 111.583 69.958C111.205 69.972 110.799 69.986 110.365 70L110.029 69.223L111.814 68.782C111.842 68.082 111.856 67.473 111.856 66.955C111.87 66.437 111.87 65.87 111.856 65.254C111.856 64.932 111.849 64.645 111.835 64.393C111.835 64.141 111.828 63.861 111.814 63.553C111.8 63.231 111.772 62.825 111.73 62.335L110.239 62.062L109.924 61.264C110.246 61.25 110.659 61.229 111.163 61.201C111.681 61.173 112.241 61.131 112.843 61.075C113.445 61.019 114.047 60.949 114.649 60.865ZM113.074 59.311C112.626 59.311 112.241 59.143 111.919 58.807C111.597 58.471 111.436 58.058 111.436 57.568C111.436 57.106 111.597 56.707 111.919 56.371C112.241 56.035 112.626 55.867 113.074 55.867C113.522 55.867 113.907 56.035 114.229 56.371C114.551 56.707 114.712 57.106 114.712 57.568C114.712 58.058 114.551 58.471 114.229 58.807C113.907 59.143 113.522 59.311 113.074 59.311ZM121.972 60.844C122.714 60.844 123.358 61.075 123.904 61.537C124.45 61.985 124.723 62.671 124.723 63.595C124.723 64.197 124.709 64.701 124.681 65.107C124.667 65.513 124.646 65.877 124.618 66.199C124.604 66.507 124.597 66.829 124.597 67.165C124.597 67.557 124.618 67.837 124.66 68.005C124.716 68.159 124.856 68.236 125.08 68.236C125.276 68.236 125.57 68.145 125.962 67.963L126.34 68.887C125.836 69.237 125.353 69.531 124.891 69.769C124.429 69.993 123.939 70.105 123.421 70.105C122.987 70.105 122.609 69.937 122.287 69.601C121.965 69.251 121.804 68.705 121.804 67.963C121.804 67.277 121.832 66.605 121.888 65.947C121.958 65.275 121.993 64.68 121.993 64.162C121.993 63.728 121.93 63.378 121.804 63.112C121.678 62.846 121.468 62.664 121.174 62.566C120.53 62.594 119.914 62.713 119.326 62.923C118.738 63.133 118.136 63.399 117.52 63.721L116.974 62.818C117.772 62.23 118.577 61.754 119.389 61.39C120.215 61.026 121.076 60.844 121.972 60.844ZM123.463 64.141L122.203 65.884C121.895 65.954 121.622 66.024 121.384 66.094C121.146 66.164 120.929 66.22 120.733 66.262C120.257 66.36 119.928 66.486 119.746 66.64C119.564 66.78 119.473 67.032 119.473 67.396C119.473 67.69 119.55 67.921 119.704 68.089C119.858 68.257 120.068 68.341 120.334 68.341C120.656 68.341 121.062 68.194 121.552 67.9C122.056 67.592 122.483 67.207 122.833 66.745L123.232 67.606C123.008 67.886 122.686 68.229 122.266 68.635C121.86 69.041 121.37 69.405 120.796 69.727C120.222 70.035 119.592 70.189 118.906 70.189C118.556 70.189 118.213 70.098 117.877 69.916C117.555 69.72 117.282 69.433 117.058 69.055C116.848 68.677 116.743 68.208 116.743 67.648C116.743 67.06 116.918 66.605 117.268 66.283C117.632 65.947 118.122 65.688 118.738 65.506C119.354 65.324 120.033 65.17 120.775 65.044C121.279 64.96 121.748 64.855 122.182 64.729C122.616 64.589 123.043 64.393 123.463 64.141ZM134.953 60.865C135.807 60.865 136.486 61.166 136.99 61.768C137.508 62.37 137.795 63.168 137.851 64.162C137.879 64.414 137.886 64.806 137.872 65.338C137.858 65.856 137.844 66.43 137.83 67.06C137.83 67.676 137.83 68.25 137.83 68.782L139.384 69.223L139.09 70C138.712 69.972 138.285 69.958 137.809 69.958C137.347 69.944 136.864 69.937 136.36 69.937C135.884 69.937 135.429 69.944 134.995 69.958C134.561 69.972 134.162 69.986 133.798 70L133.504 69.223L135.058 68.782C135.072 68.306 135.086 67.914 135.1 67.606C135.114 67.284 135.121 66.969 135.121 66.661C135.135 66.339 135.135 65.954 135.121 65.506C135.107 64.484 134.932 63.791 134.596 63.427C134.274 63.049 133.784 62.86 133.126 62.86C132.51 63.266 132.083 63.77 131.845 64.372C131.607 64.96 131.495 65.506 131.509 66.01L130.732 65.128C130.83 64.316 131.068 63.595 131.446 62.965C131.824 62.321 132.314 61.81 132.916 61.432C133.532 61.054 134.211 60.865 134.953 60.865ZM131.509 60.802C131.509 61.264 131.509 61.649 131.509 61.957C131.509 62.251 131.509 62.545 131.509 62.839C131.509 63.133 131.502 63.518 131.488 63.994L131.53 68.782L133.063 69.223L132.79 70C132.328 69.972 131.873 69.958 131.425 69.958C130.977 69.944 130.508 69.937 130.018 69.937C129.528 69.937 129.087 69.944 128.695 69.958C128.317 69.972 127.918 69.986 127.498 70L127.162 69.223L128.737 68.782C128.751 68.236 128.765 67.795 128.779 67.459C128.793 67.109 128.8 66.794 128.8 66.514C128.814 66.234 128.821 65.919 128.821 65.569C128.821 65.149 128.814 64.792 128.8 64.498C128.8 64.19 128.786 63.875 128.758 63.553C128.73 63.217 128.695 62.804 128.653 62.314L127.099 62.062L126.847 61.18C127.547 61.152 128.268 61.117 129.01 61.075C129.766 61.019 130.599 60.928 131.509 60.802ZM141.316 60.865C142.184 60.865 142.87 61.166 143.374 61.768C143.892 62.37 144.179 63.168 144.235 64.162C144.249 64.414 144.249 64.806 144.235 65.338C144.221 65.856 144.207 66.43 144.193 67.06C144.193 67.676 144.2 68.25 144.214 68.782L145.768 69.223L145.453 70C145.075 69.972 144.648 69.958 144.172 69.958C143.71 69.944 143.227 69.937 142.723 69.937C142.247 69.937 141.792 69.944 141.358 69.958C140.938 69.972 140.546 69.986 140.182 70L139.888 69.223L141.421 68.782C141.449 68.306 141.463 67.914 141.463 67.606C141.477 67.284 141.484 66.969 141.484 66.661C141.498 66.339 141.505 65.954 141.505 65.506C141.491 64.484 141.316 63.791 140.98 63.427C140.658 63.049 140.161 62.86 139.489 62.86C138.887 63.266 138.46 63.77 138.208 64.372C137.97 64.96 137.851 65.506 137.851 66.01L137.095 65.128C137.193 64.316 137.431 63.595 137.809 62.965C138.201 62.321 138.698 61.81 139.3 61.432C139.902 61.054 140.574 60.865 141.316 60.865ZM150.909 60.823C151.609 60.823 152.253 60.977 152.841 61.285C153.443 61.593 153.919 62.062 154.269 62.692C154.633 63.308 154.815 64.085 154.815 65.023C154.507 65.079 154.101 65.128 153.597 65.17C153.093 65.212 152.54 65.247 151.938 65.275C151.336 65.289 150.734 65.296 150.132 65.296C149.684 65.296 149.299 65.289 148.977 65.275C148.655 65.261 148.438 65.247 148.326 65.233V64.225C148.48 64.225 148.711 64.225 149.019 64.225C149.341 64.225 149.698 64.218 150.09 64.204C150.482 64.19 150.86 64.169 151.224 64.141C151.602 64.113 151.917 64.078 152.169 64.036C152.155 63.742 152.071 63.448 151.917 63.154C151.777 62.846 151.56 62.587 151.266 62.377C150.972 62.167 150.594 62.062 150.132 62.062C149.852 62.328 149.628 62.699 149.46 63.175C149.292 63.637 149.208 64.176 149.208 64.792C149.208 66.052 149.467 66.983 149.985 67.585C150.517 68.173 151.168 68.467 151.938 68.467C152.722 68.467 153.548 68.187 154.416 67.627L154.878 68.593C154.276 69.139 153.632 69.531 152.946 69.769C152.26 70.007 151.581 70.126 150.909 70.126C150.125 70.126 149.39 69.958 148.704 69.622C148.032 69.272 147.486 68.754 147.066 68.068C146.66 67.382 146.457 66.528 146.457 65.506C146.457 64.47 146.667 63.609 147.087 62.923C147.521 62.223 148.074 61.698 148.746 61.348C149.432 60.998 150.153 60.823 150.909 60.823ZM163.749 60.865C164.547 60.865 165.198 61.166 165.702 61.768C166.22 62.37 166.507 63.147 166.563 64.099C166.577 64.351 166.577 64.75 166.563 65.296C166.549 65.828 166.535 66.409 166.521 67.039C166.521 67.669 166.521 68.25 166.521 68.782L168.096 69.223L167.76 70C167.396 69.972 166.983 69.958 166.521 69.958C166.059 69.944 165.604 69.937 165.156 69.937C164.61 69.937 164.12 69.944 163.686 69.958C163.252 69.972 162.853 69.986 162.489 70L162.216 69.223L163.749 68.782C163.763 68.306 163.777 67.907 163.791 67.585C163.805 67.249 163.812 66.92 163.812 66.598C163.826 66.262 163.826 65.87 163.812 65.422C163.798 64.568 163.644 63.945 163.35 63.553C163.056 63.161 162.622 62.902 162.048 62.776C161.432 63.182 160.984 63.679 160.704 64.267C160.424 64.855 160.291 65.415 160.305 65.947L159.528 65.023C159.626 64.225 159.864 63.511 160.242 62.881C160.634 62.251 161.131 61.761 161.733 61.411C162.335 61.047 163.007 60.865 163.749 60.865ZM160.326 60.76C160.326 61.222 160.326 61.6 160.326 61.894C160.326 62.174 160.319 62.461 160.305 62.755C160.305 63.035 160.291 63.413 160.263 63.889L160.347 68.782L161.88 69.223L161.607 70C161.131 69.972 160.683 69.958 160.263 69.958C159.843 69.944 159.381 69.937 158.877 69.937C158.331 69.937 157.855 69.944 157.449 69.958C157.057 69.972 156.658 69.986 156.252 70L155.916 69.223L157.491 68.782C157.491 68.334 157.505 67.809 157.533 67.207C157.575 66.591 157.596 66.01 157.596 65.464C157.596 65.058 157.589 64.722 157.575 64.456C157.575 64.176 157.561 63.889 157.533 63.595C157.505 63.287 157.463 62.888 157.407 62.398L155.769 61.999L155.517 61.201C156.343 61.159 157.12 61.103 157.848 61.033C158.59 60.949 159.416 60.858 160.326 60.76ZM172.549 58.408C172.521 58.898 172.5 59.472 172.486 60.13C172.472 60.774 172.458 61.446 172.444 62.146C172.444 62.832 172.444 63.49 172.444 64.12C172.458 64.75 172.465 65.296 172.465 65.758C172.479 66.22 172.493 66.542 172.507 66.724C172.535 67.242 172.626 67.606 172.78 67.816C172.934 68.026 173.179 68.131 173.515 68.131C173.753 68.131 174.005 68.089 174.271 68.005C174.537 67.921 174.887 67.746 175.321 67.48L175.741 68.32C175.391 68.614 175.013 68.908 174.607 69.202C174.215 69.496 173.781 69.741 173.305 69.937C172.843 70.119 172.325 70.21 171.751 70.21C171.429 70.21 171.114 70.14 170.806 70C170.498 69.874 170.246 69.65 170.05 69.328C169.868 68.992 169.777 68.544 169.777 67.984C169.777 67.998 169.777 67.872 169.777 67.606C169.791 67.34 169.798 66.99 169.798 66.556C169.812 66.108 169.826 65.639 169.84 65.149C169.854 64.659 169.861 64.197 169.861 63.763C169.875 63.329 169.882 62.979 169.882 62.713C169.896 62.433 169.903 62.307 169.903 62.335C169.889 62.181 169.798 62.048 169.63 61.936C169.476 61.824 169.294 61.726 169.084 61.642C168.874 61.558 168.685 61.481 168.517 61.411C168.349 61.341 168.258 61.264 168.244 61.18C168.58 61.124 168.867 61.068 169.105 61.012C169.343 60.956 169.602 60.893 169.882 60.823C170.19 60.417 170.463 60.039 170.701 59.689C170.953 59.325 171.24 58.898 171.562 58.408C171.688 58.408 171.849 58.408 172.045 58.408C172.241 58.408 172.409 58.408 172.549 58.408ZM175.447 61.159V62.692L168.244 62.272V61.18L175.447 61.159ZM181.005 60.886C182.041 60.886 182.902 61.103 183.588 61.537C184.288 61.971 184.806 62.538 185.142 63.238C185.492 63.938 185.667 64.694 185.667 65.506C185.667 66.332 185.492 67.109 185.142 67.837C184.792 68.551 184.267 69.125 183.567 69.559C182.867 69.993 181.992 70.21 180.942 70.21C179.892 70.21 179.01 69.993 178.296 69.559C177.582 69.111 177.043 68.523 176.679 67.795C176.315 67.067 176.133 66.29 176.133 65.464C176.133 64.652 176.308 63.903 176.658 63.217C177.022 62.517 177.561 61.957 178.275 61.537C179.003 61.103 179.913 60.886 181.005 60.886ZM179.073 65.023C179.073 65.723 179.15 66.388 179.304 67.018C179.472 67.648 179.717 68.159 180.039 68.551C180.361 68.943 180.746 69.139 181.194 69.139C181.726 69.139 182.118 68.852 182.37 68.278C182.636 67.69 182.769 66.962 182.769 66.094C182.769 65.394 182.685 64.736 182.517 64.12C182.363 63.49 182.125 62.979 181.803 62.587C181.495 62.181 181.11 61.978 180.648 61.978C180.116 61.978 179.717 62.272 179.451 62.86C179.199 63.434 179.073 64.155 179.073 65.023ZM195.288 60.823C195.988 60.823 196.632 60.977 197.22 61.285C197.822 61.593 198.298 62.062 198.648 62.692C199.012 63.308 199.194 64.085 199.194 65.023C198.886 65.079 198.48 65.128 197.976 65.17C197.472 65.212 196.919 65.247 196.317 65.275C195.715 65.289 195.113 65.296 194.511 65.296C194.063 65.296 193.678 65.289 193.356 65.275C193.034 65.261 192.817 65.247 192.705 65.233V64.225C192.859 64.225 193.09 64.225 193.398 64.225C193.72 64.225 194.077 64.218 194.469 64.204C194.861 64.19 195.239 64.169 195.603 64.141C195.981 64.113 196.296 64.078 196.548 64.036C196.534 63.742 196.45 63.448 196.296 63.154C196.156 62.846 195.939 62.587 195.645 62.377C195.351 62.167 194.973 62.062 194.511 62.062C194.231 62.328 194.007 62.699 193.839 63.175C193.671 63.637 193.587 64.176 193.587 64.792C193.587 66.052 193.846 66.983 194.364 67.585C194.896 68.173 195.547 68.467 196.317 68.467C197.101 68.467 197.927 68.187 198.795 67.627L199.257 68.593C198.655 69.139 198.011 69.531 197.325 69.769C196.639 70.007 195.96 70.126 195.288 70.126C194.504 70.126 193.769 69.958 193.083 69.622C192.411 69.272 191.865 68.754 191.445 68.068C191.039 67.382 190.836 66.528 190.836 65.506C190.836 64.47 191.046 63.609 191.466 62.923C191.9 62.223 192.453 61.698 193.125 61.348C193.811 60.998 194.532 60.823 195.288 60.823ZM212.584 62.209V63.973C212.262 63.917 211.989 63.875 211.765 63.847C211.541 63.805 211.296 63.777 211.03 63.763C210.778 63.735 210.435 63.721 210.001 63.721C209.665 63.721 209.301 63.728 208.909 63.742C208.531 63.756 208.111 63.798 207.649 63.868V62.314C208.139 62.356 208.559 62.391 208.909 62.419C209.273 62.433 209.623 62.44 209.959 62.44C210.393 62.44 210.743 62.433 211.009 62.419C211.275 62.391 211.52 62.363 211.744 62.335C211.982 62.293 212.262 62.251 212.584 62.209ZM213.193 60.466C213.179 60.886 213.158 61.306 213.13 61.726C213.116 62.132 213.109 62.559 213.109 63.007C213.109 63.469 213.116 63.966 213.13 64.498C213.158 65.016 213.179 65.422 213.193 65.716H212.038L211.345 63.532V62.629L212.038 60.466H213.193ZM215.755 70C214.523 69.958 211.87 69.937 207.796 69.937C207.306 69.937 206.83 69.944 206.368 69.958C205.906 69.958 205.29 69.972 204.52 70L204.268 69.202L206.116 68.761C206.144 67.627 206.165 66.514 206.179 65.422C206.207 64.316 206.221 63.21 206.221 62.104C206.221 61.222 206.207 60.41 206.179 59.668C206.165 58.926 206.144 58.191 206.116 57.463L204.268 56.959L204.541 56.14C205.241 56.168 205.871 56.189 206.431 56.203C206.991 56.217 207.474 56.224 207.88 56.224C208.286 56.224 208.776 56.224 209.35 56.224C209.924 56.224 210.526 56.224 211.156 56.224C211.786 56.21 212.395 56.203 212.983 56.203C213.571 56.189 214.089 56.182 214.537 56.182C214.999 56.168 215.335 56.154 215.545 56.14C215.503 57.022 215.468 57.806 215.44 58.492C215.412 59.164 215.391 59.766 215.377 60.298H214.033L213.655 58.093C213.305 57.911 212.885 57.778 212.395 57.694C211.905 57.61 211.387 57.568 210.841 57.568C210.589 57.568 210.33 57.582 210.064 57.61C209.812 57.624 209.553 57.645 209.287 57.673C209.273 58.933 209.259 60.123 209.245 61.243C209.245 62.363 209.245 63.441 209.245 64.477C209.245 65.121 209.245 65.779 209.245 66.451C209.259 67.123 209.273 67.823 209.287 68.551C209.525 68.579 209.77 68.607 210.022 68.635C210.274 68.649 210.526 68.656 210.778 68.656C211.338 68.656 211.884 68.614 212.416 68.53C212.948 68.446 213.389 68.313 213.739 68.131L214.222 65.59H215.566C215.566 66.234 215.58 66.955 215.608 67.753C215.65 68.537 215.699 69.286 215.755 70ZM224.964 60.865C225.762 60.865 226.413 61.166 226.917 61.768C227.435 62.37 227.722 63.147 227.778 64.099C227.792 64.351 227.792 64.75 227.778 65.296C227.764 65.828 227.75 66.409 227.736 67.039C227.736 67.669 227.736 68.25 227.736 68.782L229.311 69.223L228.975 70C228.611 69.972 228.198 69.958 227.736 69.958C227.274 69.944 226.819 69.937 226.371 69.937C225.825 69.937 225.335 69.944 224.901 69.958C224.467 69.972 224.068 69.986 223.704 70L223.431 69.223L224.964 68.782C224.978 68.306 224.992 67.907 225.006 67.585C225.02 67.249 225.027 66.92 225.027 66.598C225.041 66.262 225.041 65.87 225.027 65.422C225.013 64.568 224.859 63.945 224.565 63.553C224.271 63.161 223.837 62.902 223.263 62.776C222.647 63.182 222.199 63.679 221.919 64.267C221.639 64.855 221.506 65.415 221.52 65.947L220.743 65.023C220.841 64.225 221.079 63.511 221.457 62.881C221.849 62.251 222.346 61.761 222.948 61.411C223.55 61.047 224.222 60.865 224.964 60.865ZM221.541 60.76C221.541 61.222 221.541 61.6 221.541 61.894C221.541 62.174 221.534 62.461 221.52 62.755C221.52 63.035 221.506 63.413 221.478 63.889L221.562 68.782L223.095 69.223L222.822 70C222.346 69.972 221.898 69.958 221.478 69.958C221.058 69.944 220.596 69.937 220.092 69.937C219.546 69.937 219.07 69.944 218.664 69.958C218.272 69.972 217.873 69.986 217.467 70L217.131 69.223L218.706 68.782C218.706 68.334 218.72 67.809 218.748 67.207C218.79 66.591 218.811 66.01 218.811 65.464C218.811 65.058 218.804 64.722 218.79 64.456C218.79 64.176 218.776 63.889 218.748 63.595C218.72 63.287 218.678 62.888 218.622 62.398L216.984 61.999L216.732 61.201C217.558 61.159 218.335 61.103 219.063 61.033C219.805 60.949 220.631 60.858 221.541 60.76ZM232.504 66.157L233.512 66.409C233.19 66.969 233.029 67.389 233.029 67.669C233.029 68.047 233.232 68.278 233.638 68.362C234.044 68.446 234.527 68.502 235.087 68.53C235.521 68.558 235.969 68.607 236.431 68.677C236.893 68.733 237.32 68.859 237.712 69.055C238.118 69.237 238.44 69.531 238.678 69.937C238.93 70.329 239.056 70.875 239.056 71.575C239.056 72.261 238.867 72.905 238.489 73.507C238.125 74.123 237.558 74.62 236.788 74.998C236.018 75.376 235.045 75.565 233.869 75.565C232.973 75.565 232.224 75.432 231.622 75.166C231.02 74.9 230.565 74.55 230.257 74.116C229.949 73.682 229.795 73.22 229.795 72.73C229.795 72.114 230.026 71.512 230.488 70.924C230.964 70.35 231.678 69.902 232.63 69.58L233.029 69.811C232.749 70.147 232.539 70.483 232.399 70.819C232.273 71.155 232.21 71.484 232.21 71.806C232.21 72.436 232.462 72.968 232.966 73.402C233.484 73.836 234.198 74.053 235.108 74.053C235.696 74.053 236.221 73.913 236.683 73.633C237.145 73.367 237.376 72.926 237.376 72.31C237.376 71.862 237.11 71.519 236.578 71.281C236.06 71.057 235.143 70.945 233.827 70.945C232.917 70.945 232.168 70.77 231.58 70.42C230.992 70.07 230.698 69.489 230.698 68.677C231.132 68.117 231.475 67.655 231.727 67.291C231.979 66.927 232.238 66.549 232.504 66.157ZM233.617 61.831C233.337 62.027 233.141 62.328 233.029 62.734C232.931 63.14 232.882 63.511 232.882 63.847C232.882 64.211 232.966 64.589 233.134 64.981C233.302 65.373 233.533 65.702 233.827 65.968C234.121 66.234 234.464 66.367 234.856 66.367C235.094 66.255 235.283 66.01 235.423 65.632C235.577 65.254 235.654 64.827 235.654 64.351C235.654 63.987 235.556 63.616 235.36 63.238C235.164 62.846 234.912 62.517 234.604 62.251C234.296 61.971 233.967 61.831 233.617 61.831ZM234.184 60.949C235.15 60.949 235.927 61.103 236.515 61.411C237.117 61.705 237.558 62.097 237.838 62.587C238.118 63.063 238.258 63.574 238.258 64.12C238.258 64.708 238.104 65.254 237.796 65.758C237.488 66.248 237.026 66.647 236.41 66.955C235.794 67.249 235.024 67.396 234.1 67.396C233.288 67.396 232.588 67.256 232 66.976C231.426 66.682 230.985 66.297 230.677 65.821C230.369 65.345 230.215 64.82 230.215 64.246C230.215 63.658 230.362 63.119 230.656 62.629C230.964 62.125 231.412 61.719 232 61.411C232.588 61.103 233.316 60.949 234.184 60.949ZM240.337 61.117C240.337 61.467 240.33 61.852 240.316 62.272C240.302 62.678 240.295 62.979 240.295 63.175C239.609 62.881 239.007 62.657 238.489 62.503C237.985 62.349 237.488 62.244 236.998 62.188L236.011 61.39C236.459 61.334 236.977 61.285 237.565 61.243C238.153 61.201 238.699 61.173 239.203 61.159C239.721 61.131 240.099 61.117 240.337 61.117ZM244.793 60.823C245.493 60.823 246.137 60.977 246.725 61.285C247.327 61.593 247.803 62.062 248.153 62.692C248.517 63.308 248.699 64.085 248.699 65.023C248.391 65.079 247.985 65.128 247.481 65.17C246.977 65.212 246.424 65.247 245.822 65.275C245.22 65.289 244.618 65.296 244.016 65.296C243.568 65.296 243.183 65.289 242.861 65.275C242.539 65.261 242.322 65.247 242.21 65.233V64.225C242.364 64.225 242.595 64.225 242.903 64.225C243.225 64.225 243.582 64.218 243.974 64.204C244.366 64.19 244.744 64.169 245.108 64.141C245.486 64.113 245.801 64.078 246.053 64.036C246.039 63.742 245.955 63.448 245.801 63.154C245.661 62.846 245.444 62.587 245.15 62.377C244.856 62.167 244.478 62.062 244.016 62.062C243.736 62.328 243.512 62.699 243.344 63.175C243.176 63.637 243.092 64.176 243.092 64.792C243.092 66.052 243.351 66.983 243.869 67.585C244.401 68.173 245.052 68.467 245.822 68.467C246.606 68.467 247.432 68.187 248.3 67.627L248.762 68.593C248.16 69.139 247.516 69.531 246.83 69.769C246.144 70.007 245.465 70.126 244.793 70.126C244.009 70.126 243.274 69.958 242.588 69.622C241.916 69.272 241.37 68.754 240.95 68.068C240.544 67.382 240.341 66.528 240.341 65.506C240.341 64.47 240.551 63.609 240.971 62.923C241.405 62.223 241.958 61.698 242.63 61.348C243.316 60.998 244.037 60.823 244.793 60.823ZM257.633 60.865C258.431 60.865 259.082 61.166 259.586 61.768C260.104 62.37 260.391 63.147 260.447 64.099C260.461 64.351 260.461 64.75 260.447 65.296C260.433 65.828 260.419 66.409 260.405 67.039C260.405 67.669 260.405 68.25 260.405 68.782L261.98 69.223L261.644 70C261.28 69.972 260.867 69.958 260.405 69.958C259.943 69.944 259.488 69.937 259.04 69.937C258.494 69.937 258.004 69.944 257.57 69.958C257.136 69.972 256.737 69.986 256.373 70L256.1 69.223L257.633 68.782C257.647 68.306 257.661 67.907 257.675 67.585C257.689 67.249 257.696 66.92 257.696 66.598C257.71 66.262 257.71 65.87 257.696 65.422C257.682 64.568 257.528 63.945 257.234 63.553C256.94 63.161 256.506 62.902 255.932 62.776C255.316 63.182 254.868 63.679 254.588 64.267C254.308 64.855 254.175 65.415 254.189 65.947L253.412 65.023C253.51 64.225 253.748 63.511 254.126 62.881C254.518 62.251 255.015 61.761 255.617 61.411C256.219 61.047 256.891 60.865 257.633 60.865ZM254.21 60.76C254.21 61.222 254.21 61.6 254.21 61.894C254.21 62.174 254.203 62.461 254.189 62.755C254.189 63.035 254.175 63.413 254.147 63.889L254.231 68.782L255.764 69.223L255.491 70C255.015 69.972 254.567 69.958 254.147 69.958C253.727 69.944 253.265 69.937 252.761 69.937C252.215 69.937 251.739 69.944 251.333 69.958C250.941 69.972 250.542 69.986 250.136 70L249.8 69.223L251.375 68.782C251.375 68.334 251.389 67.809 251.417 67.207C251.459 66.591 251.48 66.01 251.48 65.464C251.48 65.058 251.473 64.722 251.459 64.456C251.459 64.176 251.445 63.889 251.417 63.595C251.389 63.287 251.347 62.888 251.291 62.398L249.653 61.999L249.401 61.201C250.227 61.159 251.004 61.103 251.732 61.033C252.474 60.949 253.3 60.858 254.21 60.76ZM267.105 54.355C267.105 55.769 267.105 57.099 267.105 58.345C267.105 59.591 267.098 60.69 267.084 61.642C267.084 62.594 267.077 63.343 267.063 63.889L267.126 68.782L268.68 69.223L268.386 70C267.924 69.972 267.462 69.958 267 69.958C266.552 69.944 266.048 69.937 265.488 69.937C264.942 69.937 264.431 69.944 263.955 69.958C263.479 69.972 263.038 69.986 262.632 70L262.275 69.223L264.102 68.782C264.144 67.872 264.172 66.871 264.186 65.779C264.214 64.687 264.228 63.588 264.228 62.482C264.228 61.236 264.207 60.074 264.165 58.996C264.137 57.918 264.081 56.875 263.997 55.867L262.359 55.594L262.128 54.733C262.828 54.719 263.605 54.677 264.459 54.607C265.313 54.537 266.195 54.453 267.105 54.355ZM270.633 60.865C271.501 60.865 272.187 61.166 272.691 61.768C273.209 62.37 273.496 63.147 273.552 64.099C273.58 64.351 273.587 64.75 273.573 65.296C273.559 65.828 273.545 66.409 273.531 67.039C273.531 67.669 273.531 68.25 273.531 68.782L275.085 69.223L274.77 70C274.014 69.958 273.104 69.937 272.04 69.937C271.508 69.937 271.025 69.944 270.591 69.958C270.157 69.972 269.758 69.986 269.394 70L269.1 69.223L270.633 68.782C270.661 68.306 270.682 67.907 270.696 67.585C270.71 67.249 270.717 66.92 270.717 66.598C270.731 66.262 270.731 65.87 270.717 65.422C270.703 64.442 270.528 63.77 270.192 63.406C269.87 63.042 269.38 62.86 268.722 62.86C268.106 63.266 267.672 63.749 267.42 64.309C267.182 64.869 267.07 65.415 267.084 65.947L266.328 65.023C266.426 64.225 266.671 63.511 267.063 62.881C267.469 62.251 267.98 61.761 268.596 61.411C269.212 61.047 269.891 60.865 270.633 60.865ZM280.948 60.844C281.69 60.844 282.334 61.075 282.88 61.537C283.426 61.985 283.699 62.671 283.699 63.595C283.699 64.197 283.685 64.701 283.657 65.107C283.643 65.513 283.622 65.877 283.594 66.199C283.58 66.507 283.573 66.829 283.573 67.165C283.573 67.557 283.594 67.837 283.636 68.005C283.692 68.159 283.832 68.236 284.056 68.236C284.252 68.236 284.546 68.145 284.938 67.963L285.316 68.887C284.812 69.237 284.329 69.531 283.867 69.769C283.405 69.993 282.915 70.105 282.397 70.105C281.963 70.105 281.585 69.937 281.263 69.601C280.941 69.251 280.78 68.705 280.78 67.963C280.78 67.277 280.808 66.605 280.864 65.947C280.934 65.275 280.969 64.68 280.969 64.162C280.969 63.728 280.906 63.378 280.78 63.112C280.654 62.846 280.444 62.664 280.15 62.566C279.506 62.594 278.89 62.713 278.302 62.923C277.714 63.133 277.112 63.399 276.496 63.721L275.95 62.818C276.748 62.23 277.553 61.754 278.365 61.39C279.191 61.026 280.052 60.844 280.948 60.844ZM282.439 64.141L281.179 65.884C280.871 65.954 280.598 66.024 280.36 66.094C280.122 66.164 279.905 66.22 279.709 66.262C279.233 66.36 278.904 66.486 278.722 66.64C278.54 66.78 278.449 67.032 278.449 67.396C278.449 67.69 278.526 67.921 278.68 68.089C278.834 68.257 279.044 68.341 279.31 68.341C279.632 68.341 280.038 68.194 280.528 67.9C281.032 67.592 281.459 67.207 281.809 66.745L282.208 67.606C281.984 67.886 281.662 68.229 281.242 68.635C280.836 69.041 280.346 69.405 279.772 69.727C279.198 70.035 278.568 70.189 277.882 70.189C277.532 70.189 277.189 70.098 276.853 69.916C276.531 69.72 276.258 69.433 276.034 69.055C275.824 68.677 275.719 68.208 275.719 67.648C275.719 67.06 275.894 66.605 276.244 66.283C276.608 65.947 277.098 65.688 277.714 65.506C278.33 65.324 279.009 65.17 279.751 65.044C280.255 64.96 280.724 64.855 281.158 64.729C281.592 64.589 282.019 64.393 282.439 64.141ZM290.359 60.886C290.373 61.208 290.394 61.586 290.422 62.02C290.45 62.454 290.478 62.853 290.506 63.217C290.534 63.567 290.548 63.805 290.548 63.931L290.695 68.698L292.774 69.223L292.459 70C292.221 69.986 291.906 69.979 291.514 69.979C291.122 69.965 290.716 69.958 290.296 69.958C289.876 69.944 289.498 69.937 289.162 69.937C288.728 69.937 288.259 69.944 287.755 69.958C287.251 69.972 286.789 69.986 286.369 70L286.054 69.223L287.755 68.782C287.755 68.152 287.755 67.592 287.755 67.102C287.755 66.598 287.755 66.052 287.755 65.464C287.755 65.142 287.748 64.848 287.734 64.582C287.734 64.302 287.727 63.994 287.713 63.658C287.699 63.308 287.671 62.881 287.629 62.377L286.201 62.146L285.907 61.264C286.229 61.25 286.656 61.229 287.188 61.201C287.734 61.173 288.294 61.131 288.868 61.075C289.442 61.019 289.939 60.956 290.359 60.886ZM293.173 60.844C293.565 60.844 293.929 60.921 294.265 61.075C294.601 61.215 294.923 61.446 295.231 61.768C295.147 62.188 295.07 62.552 295 62.86C294.93 63.168 294.846 63.476 294.748 63.784C294.664 64.078 294.559 64.442 294.433 64.876H293.257C293.159 64.358 293.012 63.91 292.816 63.532C292.634 63.14 292.382 62.874 292.06 62.734C291.71 62.958 291.374 63.378 291.052 63.994C290.744 64.596 290.59 65.401 290.59 66.409L289.771 65.191C289.883 64.407 290.1 63.686 290.422 63.028C290.744 62.37 291.136 61.845 291.598 61.453C292.074 61.047 292.599 60.844 293.173 60.844ZM300.532 60.865C300.518 61.677 300.497 62.454 300.469 63.196C300.455 63.938 300.448 64.61 300.448 65.212C300.448 65.73 300.455 66.325 300.469 66.997C300.497 67.669 300.518 68.264 300.532 68.782L302.212 69.223L301.855 70C301.491 69.972 301.12 69.958 300.742 69.958C300.378 69.944 299.825 69.937 299.083 69.937C298.397 69.937 297.858 69.944 297.466 69.958C297.088 69.972 296.682 69.986 296.248 70L295.912 69.223L297.697 68.782C297.725 68.082 297.739 67.473 297.739 66.955C297.753 66.437 297.753 65.87 297.739 65.254C297.739 64.932 297.732 64.645 297.718 64.393C297.718 64.141 297.711 63.861 297.697 63.553C297.683 63.231 297.655 62.825 297.613 62.335L296.122 62.062L295.807 61.264C296.129 61.25 296.542 61.229 297.046 61.201C297.564 61.173 298.124 61.131 298.726 61.075C299.328 61.019 299.93 60.949 300.532 60.865ZM298.957 59.311C298.509 59.311 298.124 59.143 297.802 58.807C297.48 58.471 297.319 58.058 297.319 57.568C297.319 57.106 297.48 56.707 297.802 56.371C298.124 56.035 298.509 55.867 298.957 55.867C299.405 55.867 299.79 56.035 300.112 56.371C300.434 56.707 300.595 57.106 300.595 57.568C300.595 58.058 300.434 58.471 300.112 58.807C299.79 59.143 299.405 59.311 298.957 59.311ZM307.855 60.844C308.597 60.844 309.241 61.075 309.787 61.537C310.333 61.985 310.606 62.671 310.606 63.595C310.606 64.197 310.592 64.701 310.564 65.107C310.55 65.513 310.529 65.877 310.501 66.199C310.487 66.507 310.48 66.829 310.48 67.165C310.48 67.557 310.501 67.837 310.543 68.005C310.599 68.159 310.739 68.236 310.963 68.236C311.159 68.236 311.453 68.145 311.845 67.963L312.223 68.887C311.719 69.237 311.236 69.531 310.774 69.769C310.312 69.993 309.822 70.105 309.304 70.105C308.87 70.105 308.492 69.937 308.17 69.601C307.848 69.251 307.687 68.705 307.687 67.963C307.687 67.277 307.715 66.605 307.771 65.947C307.841 65.275 307.876 64.68 307.876 64.162C307.876 63.728 307.813 63.378 307.687 63.112C307.561 62.846 307.351 62.664 307.057 62.566C306.413 62.594 305.797 62.713 305.209 62.923C304.621 63.133 304.019 63.399 303.403 63.721L302.857 62.818C303.655 62.23 304.46 61.754 305.272 61.39C306.098 61.026 306.959 60.844 307.855 60.844ZM309.346 64.141L308.086 65.884C307.778 65.954 307.505 66.024 307.267 66.094C307.029 66.164 306.812 66.22 306.616 66.262C306.14 66.36 305.811 66.486 305.629 66.64C305.447 66.78 305.356 67.032 305.356 67.396C305.356 67.69 305.433 67.921 305.587 68.089C305.741 68.257 305.951 68.341 306.217 68.341C306.539 68.341 306.945 68.194 307.435 67.9C307.939 67.592 308.366 67.207 308.716 66.745L309.115 67.606C308.891 67.886 308.569 68.229 308.149 68.635C307.743 69.041 307.253 69.405 306.679 69.727C306.105 70.035 305.475 70.189 304.789 70.189C304.439 70.189 304.096 70.098 303.76 69.916C303.438 69.72 303.165 69.433 302.941 69.055C302.731 68.677 302.626 68.208 302.626 67.648C302.626 67.06 302.801 66.605 303.151 66.283C303.515 65.947 304.005 65.688 304.621 65.506C305.237 65.324 305.916 65.17 306.658 65.044C307.162 64.96 307.631 64.855 308.065 64.729C308.499 64.589 308.926 64.393 309.346 64.141Z" fill="white"/>
<path d="M199.175 35C199.158 36.65 199.15 38.1167 199.15 39.4C199.15 40.6667 199.15 41.875 199.15 43.025C199.15 43.875 199.15 44.725 199.15 45.575C199.15 46.425 199.158 47.3667 199.175 48.4L201.825 49.05L201.5 50C201.067 49.9667 200.458 49.95 199.675 49.95C198.908 49.9333 198.125 49.925 197.325 49.925C196.558 49.925 195.783 49.9333 195 49.95C194.233 49.9667 193.592 49.9833 193.075 50L192.725 49.05L195.425 48.4C195.458 47.1667 195.483 46.0417 195.5 45.025C195.533 43.9917 195.55 42.95 195.55 41.9C195.55 40.9167 195.533 39.8667 195.5 38.75C195.483 37.6167 195.458 36.3667 195.425 35H199.175ZM204.875 33.5C204.758 34.5167 204.683 35.4917 204.65 36.425C204.617 37.3417 204.6 38.1917 204.6 38.975H202.975L202.325 35.35C202.042 35.3167 201.725 35.3 201.375 35.3C201.025 35.2833 200.675 35.275 200.325 35.275C199.808 35.275 199.292 35.2917 198.775 35.325C198.258 35.3583 197.792 35.4167 197.375 35.5C196.942 35.4167 196.45 35.3667 195.9 35.35C195.35 35.3167 194.8 35.3 194.25 35.3C193.933 35.3 193.625 35.3083 193.325 35.325C193.025 35.325 192.742 35.3333 192.475 35.35L191.825 38.975H190.2C190.183 38.1917 190.15 37.35 190.1 36.45C190.05 35.55 189.975 34.5667 189.875 33.5C190.442 33.5167 191.133 33.5333 191.95 33.55C192.783 33.5667 193.675 33.5833 194.625 33.6C195.592 33.6 196.567 33.6 197.55 33.6C198.55 33.6 199.517 33.6 200.45 33.6C201.383 33.5833 202.233 33.5667 203 33.55C203.767 33.5333 204.392 33.5167 204.875 33.5ZM214.673 33.25C215.956 33.25 217.09 33.4833 218.073 33.95C219.056 34.4167 219.881 35.05 220.548 35.85C221.231 36.6333 221.748 37.525 222.098 38.525C222.448 39.5083 222.623 40.525 222.623 41.575C222.623 42.725 222.465 43.8167 222.148 44.85C221.831 45.8833 221.348 46.8083 220.698 47.625C220.065 48.4417 219.248 49.0833 218.248 49.55C217.265 50.0167 216.106 50.25 214.773 50.25C213.44 50.25 212.265 50.0167 211.248 49.55C210.248 49.0667 209.415 48.425 208.748 47.625C208.081 46.8083 207.581 45.8833 207.248 44.85C206.915 43.8 206.748 42.7 206.748 41.55C206.748 40.05 207.031 38.675 207.598 37.425C208.181 36.1583 209.056 35.15 210.223 34.4C211.406 33.6333 212.89 33.25 214.673 33.25ZM219.173 42.6C219.173 41.5667 219.048 40.575 218.798 39.625C218.565 38.675 218.231 37.8333 217.798 37.1C217.365 36.35 216.84 35.7583 216.223 35.325C215.623 34.8917 214.948 34.675 214.198 34.675C213.265 34.675 212.498 34.9667 211.898 35.55C211.315 36.1167 210.881 36.8583 210.598 37.775C210.331 38.6917 210.198 39.6833 210.198 40.75C210.198 41.7833 210.315 42.7833 210.548 43.75C210.798 44.7167 211.148 45.5833 211.598 46.35C212.048 47.1167 212.581 47.725 213.198 48.175C213.815 48.6083 214.49 48.825 215.223 48.825C216.173 48.825 216.931 48.5333 217.498 47.95C218.081 47.35 218.506 46.575 218.773 45.625C219.04 44.675 219.173 43.6667 219.173 42.6ZM232.594 33.5C234.461 33.5 235.844 33.9333 236.744 34.8C237.644 35.65 238.094 36.775 238.094 38.175C238.094 39.2417 237.827 40.1833 237.294 41C236.777 41.8 236.027 42.425 235.044 42.875C234.077 43.325 232.919 43.55 231.569 43.55C231.269 43.55 230.902 43.525 230.469 43.475C230.036 43.425 229.577 43.35 229.094 43.25V41.675C229.644 41.7917 230.111 41.8917 230.494 41.975C230.894 42.0417 231.244 42.075 231.544 42.075C231.777 42.075 231.994 42.0667 232.194 42.05C232.394 42.0167 232.586 41.9833 232.769 41.95C233.302 41.6 233.694 41.1167 233.944 40.5C234.211 39.8667 234.344 39.2 234.344 38.5C234.344 37.9 234.252 37.3333 234.069 36.8C233.886 36.25 233.611 35.8083 233.244 35.475C232.877 35.125 232.427 34.95 231.894 34.95C231.561 34.95 231.252 34.975 230.969 35.025C230.686 35.0583 230.436 35.0917 230.219 35.125C230.219 35.5917 230.219 36.2 230.219 36.95C230.219 37.6833 230.219 38.45 230.219 39.25C230.219 40.05 230.219 40.7917 230.219 41.475C230.219 42.1583 230.219 42.6833 230.219 43.05C230.219 43.6167 230.219 44.075 230.219 44.425C230.219 44.7583 230.219 45.0417 230.219 45.275C230.219 45.4917 230.219 45.725 230.219 45.975C230.219 46.2083 230.219 46.5167 230.219 46.9C230.219 47.2667 230.219 47.7667 230.219 48.4L232.969 49.05L232.619 50C231.752 49.95 230.327 49.925 228.344 49.925C227.527 49.925 226.811 49.9333 226.194 49.95C225.577 49.9667 225.011 49.9833 224.494 50L224.119 49.05L226.444 48.525C226.477 47.775 226.502 46.9333 226.519 46C226.536 45.05 226.544 44.1167 226.544 43.2C226.561 42.2833 226.569 41.5 226.569 40.85C226.569 39.9833 226.561 39.25 226.544 38.65C226.544 38.0333 226.536 37.4583 226.519 36.925C226.502 36.375 226.477 35.7667 226.444 35.1L224.219 34.45L224.494 33.5C225.011 33.5167 225.461 33.5333 225.844 33.55C226.227 33.5667 226.611 33.5833 226.994 33.6C227.394 33.6 227.836 33.6 228.319 33.6C228.836 33.6 229.302 33.5917 229.719 33.575C230.136 33.5583 230.561 33.5417 230.994 33.525C231.444 33.5083 231.977 33.5 232.594 33.5ZM248.023 33.25C249.306 33.25 250.439 33.4833 251.423 33.95C252.406 34.4167 253.231 35.05 253.898 35.85C254.581 36.6333 255.098 37.525 255.448 38.525C255.798 39.5083 255.973 40.525 255.973 41.575C255.973 42.725 255.814 43.8167 255.498 44.85C255.181 45.8833 254.698 46.8083 254.048 47.625C253.414 48.4417 252.598 49.0833 251.598 49.55C250.614 50.0167 249.456 50.25 248.123 50.25C246.789 50.25 245.614 50.0167 244.598 49.55C243.598 49.0667 242.764 48.425 242.098 47.625C241.431 46.8083 240.931 45.8833 240.598 44.85C240.264 43.8 240.098 42.7 240.098 41.55C240.098 40.05 240.381 38.675 240.948 37.425C241.531 36.1583 242.406 35.15 243.573 34.4C244.756 33.6333 246.239 33.25 248.023 33.25ZM252.523 42.6C252.523 41.5667 252.398 40.575 252.148 39.625C251.914 38.675 251.581 37.8333 251.148 37.1C250.714 36.35 250.189 35.7583 249.573 35.325C248.973 34.8917 248.298 34.675 247.548 34.675C246.614 34.675 245.848 34.9667 245.248 35.55C244.664 36.1167 244.231 36.8583 243.948 37.775C243.681 38.6917 243.548 39.6833 243.548 40.75C243.548 41.7833 243.664 42.7833 243.898 43.75C244.148 44.7167 244.498 45.5833 244.948 46.35C245.398 47.1167 245.931 47.725 246.548 48.175C247.164 48.6083 247.839 48.825 248.573 48.825C249.523 48.825 250.281 48.5333 250.848 47.95C251.431 47.35 251.856 46.575 252.123 45.625C252.389 44.675 252.523 43.6667 252.523 42.6ZM271.419 46.1L272.369 47.35C271.319 48.3167 270.302 49.025 269.319 49.475C268.335 49.9083 267.202 50.125 265.919 50.125C264.335 50.125 262.944 49.7667 261.744 49.05C260.544 48.3167 259.61 47.3167 258.944 46.05C258.294 44.7667 257.969 43.2917 257.969 41.625C257.969 40.575 258.135 39.55 258.469 38.55C258.802 37.55 259.302 36.65 259.969 35.85C260.635 35.05 261.477 34.4167 262.494 33.95C263.527 33.4667 264.727 33.225 266.094 33.225C267.144 33.225 268.185 33.3417 269.219 33.575C270.252 33.7917 271.227 34.1167 272.144 34.55C271.977 35.2667 271.81 36.0083 271.644 36.775C271.494 37.525 271.352 38.2667 271.219 39H269.769L269.269 36.1C268.619 35.6167 267.852 35.2833 266.969 35.1C266.102 34.9 265.202 34.8 264.269 34.8C263.252 35.35 262.535 36.1833 262.119 37.3C261.702 38.4167 261.494 39.6667 261.494 41.05C261.494 42.5333 261.719 43.8167 262.169 44.9C262.619 45.9667 263.235 46.7917 264.019 47.375C264.802 47.9417 265.685 48.225 266.669 48.225C267.585 48.225 268.385 48.05 269.069 47.7C269.769 47.35 270.552 46.8167 271.419 46.1ZM282.853 33.4C283.836 36.15 284.886 38.8083 286.003 41.375C287.136 43.925 288.178 46.3083 289.128 48.525L291.078 49.05L290.753 50C290.236 49.9667 289.653 49.95 289.003 49.95C288.37 49.9333 287.795 49.925 287.278 49.925C286.978 49.925 286.578 49.9333 286.078 49.95C285.595 49.95 285.111 49.9583 284.628 49.975C284.145 49.975 283.753 49.9833 283.453 50L283.103 49.05L285.053 48.525C284.553 47.2417 283.92 45.6833 283.153 43.85C282.403 42 281.595 40.0417 280.728 37.975L282.853 33.4ZM282.853 33.4C282.736 33.7 282.62 33.975 282.503 34.225C282.403 34.475 282.295 34.775 282.178 35.125C282.061 35.475 281.936 35.95 281.803 36.55C281.486 37.4167 281.128 38.3917 280.728 39.475C280.345 40.5417 279.945 41.6333 279.528 42.75C279.128 43.85 278.761 44.9083 278.428 45.925C278.095 46.925 277.836 47.7917 277.653 48.525L279.503 49.05L279.178 50C278.111 49.95 277.128 49.925 276.228 49.925C275.395 49.925 274.528 49.95 273.628 50L273.303 49.05L275.153 48.525C275.47 47.9417 275.836 47.2083 276.253 46.325C276.686 45.425 277.136 44.4333 277.603 43.35C278.086 42.2667 278.57 41.1417 279.053 39.975C279.536 38.8083 279.995 37.6667 280.428 36.55C280.861 35.4167 281.245 34.3667 281.578 33.4H282.853ZM285.178 44.375V46.325C284.461 46.2417 283.778 46.1917 283.128 46.175C282.495 46.1583 281.911 46.15 281.378 46.15C280.811 46.15 280.253 46.1583 279.703 46.175C279.17 46.1917 278.578 46.2417 277.928 46.325V44.4C278.578 44.4833 279.17 44.5417 279.703 44.575C280.253 44.6083 280.811 44.625 281.378 44.625C281.911 44.625 282.495 44.6083 283.128 44.575C283.778 44.5417 284.461 44.475 285.178 44.375ZM300.099 33.5C301.966 33.5 303.349 33.9333 304.249 34.8C305.149 35.65 305.599 36.775 305.599 38.175C305.599 39.2417 305.332 40.1833 304.799 41C304.282 41.8 303.532 42.425 302.549 42.875C301.582 43.325 300.424 43.55 299.074 43.55C298.774 43.55 298.407 43.525 297.974 43.475C297.541 43.425 297.082 43.35 296.599 43.25V41.675C297.149 41.7917 297.616 41.8917 297.999 41.975C298.399 42.0417 298.749 42.075 299.049 42.075C299.282 42.075 299.499 42.0667 299.699 42.05C299.899 42.0167 300.091 41.9833 300.274 41.95C300.807 41.6 301.199 41.1167 301.449 40.5C301.716 39.8667 301.849 39.2 301.849 38.5C301.849 37.9 301.757 37.3333 301.574 36.8C301.391 36.25 301.116 35.8083 300.749 35.475C300.382 35.125 299.932 34.95 299.399 34.95C299.066 34.95 298.757 34.975 298.474 35.025C298.191 35.0583 297.941 35.0917 297.724 35.125C297.724 35.5917 297.724 36.2 297.724 36.95C297.724 37.6833 297.724 38.45 297.724 39.25C297.724 40.05 297.724 40.7917 297.724 41.475C297.724 42.1583 297.724 42.6833 297.724 43.05C297.724 43.6167 297.724 44.075 297.724 44.425C297.724 44.7583 297.724 45.0417 297.724 45.275C297.724 45.4917 297.724 45.725 297.724 45.975C297.724 46.2083 297.724 46.5167 297.724 46.9C297.724 47.2667 297.724 47.7667 297.724 48.4L300.474 49.05L300.124 50C299.257 49.95 297.832 49.925 295.849 49.925C295.032 49.925 294.316 49.9333 293.699 49.95C293.082 49.9667 292.516 49.9833 291.999 50L291.624 49.05L293.949 48.525C293.982 47.775 294.007 46.9333 294.024 46C294.041 45.05 294.049 44.1167 294.049 43.2C294.066 42.2833 294.074 41.5 294.074 40.85C294.074 39.9833 294.066 39.25 294.049 38.65C294.049 38.0333 294.041 37.4583 294.024 36.925C294.007 36.375 293.982 35.7667 293.949 35.1L291.724 34.45L291.999 33.5C292.516 33.5167 292.966 33.5333 293.349 33.55C293.732 33.5667 294.116 33.5833 294.499 33.6C294.899 33.6 295.341 33.6 295.824 33.6C296.341 33.6 296.807 33.5917 297.224 33.575C297.641 33.5583 298.066 33.5417 298.499 33.525C298.949 33.5083 299.482 33.5 300.099 33.5Z" fill="white"/>
<path d="M152.875 47.4C153.292 47.2167 153.725 47.0083 154.175 46.775C154.642 46.5417 155.042 46.3417 155.375 46.175L155.725 47.05C154.975 47.6833 154.3 48.2833 153.7 48.85C153.117 49.4 152.5 49.9833 151.85 50.6C151.267 50.35 150.542 49.8583 149.675 49.125C148.808 48.375 147.858 47.4583 146.825 46.375C145.808 45.2917 144.742 44.1 143.625 42.8C143.142 42.2333 142.642 41.6583 142.125 41.075C141.625 40.4917 141.2 39.8917 140.85 39.275C140.5 38.6583 140.325 38.0083 140.325 37.325C140.325 36.6083 140.517 35.9583 140.9 35.375C141.3 34.775 141.875 34.3 142.625 33.95C143.375 33.5833 144.283 33.4 145.35 33.4C145.983 33.4 146.717 33.475 147.55 33.625C148.4 33.775 149.242 34.0667 150.075 34.5C149.958 35.0833 149.817 35.725 149.65 36.425C149.5 37.1083 149.35 37.7583 149.2 38.375H147.875L147.3 35.65C146.883 35.2667 146.458 35.0083 146.025 34.875C145.592 34.7417 145.125 34.675 144.625 34.675C144.292 34.8917 144.058 35.2 143.925 35.6C143.808 36 143.75 36.3667 143.75 36.7C143.75 37.2833 143.925 37.85 144.275 38.4C144.625 38.9333 145.108 39.525 145.725 40.175C146.342 40.8083 147.05 41.5833 147.85 42.5C148.733 43.4833 149.583 44.425 150.4 45.325C151.233 46.2083 152.058 46.9 152.875 47.4ZM144.25 40.925C143.65 41.4083 143.208 41.9833 142.925 42.65C142.642 43.3 142.5 43.9667 142.5 44.65C142.5 45.3167 142.625 45.9417 142.875 46.525C143.142 47.1083 143.517 47.5833 144 47.95C144.5 48.3 145.092 48.475 145.775 48.475C146.642 48.475 147.4 48.275 148.05 47.875C148.7 47.4583 149.242 46.9167 149.675 46.25C150.125 45.5667 150.458 44.825 150.675 44.025C150.892 43.2083 151 42.4083 151 41.625C151 40.9583 150.925 40.3417 150.775 39.775L153.575 40.05C153.208 42.45 152.567 44.4 151.65 45.9C150.733 47.3833 149.65 48.475 148.4 49.175C147.167 49.8583 145.858 50.2 144.475 50.2C143.292 50.2 142.292 49.975 141.475 49.525C140.658 49.075 140.042 48.4917 139.625 47.775C139.208 47.0417 139 46.275 139 45.475C139 44.7583 139.167 44.0583 139.5 43.375C139.85 42.6917 140.375 42.0833 141.075 41.55C141.775 41 142.658 40.5917 143.725 40.325L144.25 40.925ZM156.475 41.5C155.058 41.35 153.625 41.2083 152.175 41.075C150.725 40.925 149.308 40.85 147.925 40.85L148.325 39.5H156.175L156.475 41.5Z" fill="white"/>
<path d="M26.4 40.725V42.825C26.0167 42.7583 25.6917 42.7083 25.425 42.675C25.1583 42.625 24.8667 42.5917 24.55 42.575C24.25 42.5417 23.8417 42.525 23.325 42.525C22.925 42.525 22.4917 42.5333 22.025 42.55C21.575 42.5667 21.075 42.6167 20.525 42.7V40.85C21.1083 40.9 21.6083 40.9417 22.025 40.975C22.4583 40.9917 22.875 41 23.275 41C23.7917 41 24.2083 40.9917 24.525 40.975C24.8417 40.9417 25.1333 40.9083 25.4 40.875C25.6833 40.825 26.0167 40.775 26.4 40.725ZM27.125 38.65C27.1083 39.15 27.0833 39.65 27.05 40.15C27.0333 40.6333 27.025 41.1417 27.025 41.675C27.025 42.225 27.0333 42.8167 27.05 43.45C27.0833 44.0667 27.1083 44.55 27.125 44.9H25.75L24.925 42.3V41.225L25.75 38.65H27.125ZM30.175 50C28.7083 49.95 25.55 49.925 20.7 49.925C20.1167 49.925 19.55 49.9333 19 49.95C18.45 49.95 17.7167 49.9667 16.8 50L16.5 49.05L18.7 48.525C18.7333 47.175 18.7583 45.85 18.775 44.55C18.8083 43.2333 18.825 41.9167 18.825 40.6C18.825 39.55 18.8083 38.5833 18.775 37.7C18.7583 36.8167 18.7333 35.9417 18.7 35.075L16.5 34.475L16.825 33.5C17.6583 33.5333 18.4083 33.5583 19.075 33.575C19.7417 33.5917 20.3167 33.6 20.8 33.6C21.2833 33.6 21.8667 33.6 22.55 33.6C23.2333 33.6 23.95 33.6 24.7 33.6C25.45 33.5833 26.175 33.575 26.875 33.575C27.575 33.5583 28.1917 33.55 28.725 33.55C29.275 33.5333 29.675 33.5167 29.925 33.5C29.875 34.55 29.8333 35.4833 29.8 36.3C29.7667 37.1 29.7417 37.8167 29.725 38.45H28.125L27.675 35.825C27.2583 35.6083 26.7583 35.45 26.175 35.35C25.5917 35.25 24.975 35.2 24.325 35.2C24.025 35.2 23.7167 35.2167 23.4 35.25C23.1 35.2667 22.7917 35.2917 22.475 35.325C22.4583 36.825 22.4417 38.2417 22.425 39.575C22.425 40.9083 22.425 42.1917 22.425 43.425C22.425 44.1917 22.425 44.975 22.425 45.775C22.4417 46.575 22.4583 47.4083 22.475 48.275C22.7583 48.3083 23.05 48.3417 23.35 48.375C23.65 48.3917 23.95 48.4 24.25 48.4C24.9167 48.4 25.5667 48.35 26.2 48.25C26.8333 48.15 27.3583 47.9917 27.775 47.775L28.35 44.75H29.95C29.95 45.5167 29.9667 46.375 30 47.325C30.05 48.2583 30.1083 49.15 30.175 50ZM37.6891 33.5C38.5891 34.8833 39.5141 36.2 40.4641 37.45C41.4141 38.6833 42.3807 39.9167 43.3641 41.15C44.3641 42.3833 45.3807 43.675 46.4141 45.025L46.0141 50.25H45.7641C44.7307 48.75 43.7641 47.4083 42.8641 46.225C41.9807 45.0417 41.1307 43.95 40.3141 42.95C39.4974 41.9333 38.6891 40.9333 37.8891 39.95C37.0891 38.95 36.2641 37.8833 35.4141 36.75C35.4974 36.1333 35.6724 35.6167 35.9391 35.2C36.2224 34.7833 36.5307 34.4417 36.8641 34.175C37.1974 33.9083 37.4724 33.6833 37.6891 33.5ZM37.6891 33.5L36.0141 35.8C36.0141 36.1667 36.0141 36.8333 36.0141 37.8C36.0141 38.75 36.0141 39.825 36.0141 41.025C36.0141 42.0583 36.0391 43.1583 36.0891 44.325C36.1391 45.4917 36.2224 46.8917 36.3391 48.525L38.8641 49.05L38.5141 50C38.0641 49.9667 37.5224 49.95 36.8891 49.95C36.2557 49.9333 35.6641 49.925 35.1141 49.925C34.6141 49.925 34.0724 49.9333 33.4891 49.95C32.9224 49.9667 32.3807 49.9833 31.8641 50L31.5391 49.05L34.0641 48.525C34.1474 47.175 34.2057 45.8833 34.2391 44.65C34.2891 43.4 34.3141 42.175 34.3141 40.975C34.3141 39.9917 34.2974 39.025 34.2641 38.075C34.2474 37.1083 34.2224 36.1333 34.1891 35.15L31.5891 34.475L31.8891 33.5C32.9224 33.55 33.9391 33.575 34.9391 33.575C35.3391 33.575 35.8141 33.5667 36.3641 33.55C36.9307 33.5333 37.3724 33.5167 37.6891 33.5ZM49.5391 33.5L49.8891 34.475L47.6891 35C47.5891 36.7667 47.5141 38.4 47.4641 39.9C47.4307 41.4 47.4141 42.8917 47.4141 44.375C47.4141 45.3083 47.4224 46.2583 47.4391 47.225C47.4557 48.175 47.4724 49.1833 47.4891 50.25H45.9141L45.6141 49.175C45.6641 48.325 45.6974 47.5417 45.7141 46.825C45.7474 46.0917 45.7641 45.2917 45.7641 44.425C45.7641 43.0417 45.7307 41.5583 45.6641 39.975C45.6141 38.375 45.5224 36.7167 45.3891 35L43.2141 34.475L43.5141 33.5C44.0307 33.5167 44.5224 33.5417 44.9891 33.575C45.4557 33.5917 45.9474 33.6 46.4641 33.6C46.9974 33.6 47.5307 33.5917 48.0641 33.575C48.5974 33.5583 49.0891 33.5333 49.5391 33.5ZM62.4244 47.675C62.4577 47.1917 62.4827 46.7667 62.4994 46.4C62.5161 46.0167 62.5244 45.6417 62.5244 45.275C62.5244 44.9083 62.5161 44.55 62.4994 44.2C62.4827 43.85 62.4494 43.5 62.3994 43.15L60.1744 42.475L60.4494 41.55C61.0161 41.5833 61.6327 41.6083 62.2994 41.625C62.9661 41.6417 63.6661 41.65 64.3994 41.65C65.0327 41.65 65.6411 41.6417 66.2244 41.625C66.8244 41.6083 67.4244 41.5833 68.0244 41.55L68.3494 42.475L66.1494 43.15C66.1327 43.55 66.1161 43.9583 66.0994 44.375C66.0827 44.775 66.0827 45.1917 66.0994 45.625C66.0994 46.125 66.1161 46.65 66.1494 47.2C66.1994 47.7333 66.2327 48.3167 66.2494 48.95C65.2827 49.25 64.3077 49.5333 63.3244 49.8C62.3411 50.05 61.1744 50.175 59.8244 50.175C58.3244 50.175 57.0411 49.9417 55.9744 49.475C54.9244 48.9917 54.0744 48.3583 53.4244 47.575C52.7744 46.775 52.2911 45.8833 51.9744 44.9C51.6744 43.9 51.5244 42.875 51.5244 41.825C51.5244 40.725 51.6911 39.6667 52.0244 38.65C52.3577 37.6167 52.8661 36.6917 53.5494 35.875C54.2327 35.0583 55.1077 34.4167 56.1744 33.95C57.2577 33.4667 58.5327 33.225 59.9994 33.225C61.0494 33.225 62.0577 33.3167 63.0244 33.5C64.0077 33.6667 64.9994 33.9833 65.9994 34.45C65.8327 35.2167 65.6744 35.975 65.5244 36.725C65.3744 37.475 65.2411 38.2417 65.1244 39.025H63.4494L62.9494 35.725C62.1494 35.3917 61.3994 35.1583 60.6994 35.025C59.9994 34.8917 59.1661 34.825 58.1994 34.825C57.2827 35.4917 56.6077 36.3833 56.1744 37.5C55.7411 38.6167 55.5244 39.9083 55.5244 41.375C55.5244 42.275 55.6077 43.1583 55.7744 44.025C55.9577 44.8917 56.2244 45.675 56.5744 46.375C56.9411 47.075 57.3994 47.6333 57.9494 48.05C58.5161 48.4667 59.1827 48.675 59.9494 48.675C60.4494 48.675 60.8911 48.5917 61.2744 48.425C61.6577 48.2417 62.0411 47.9917 62.4244 47.675ZM79.2564 40.725V42.825C78.8731 42.7583 78.5481 42.7083 78.2814 42.675C78.0148 42.625 77.7231 42.5917 77.4064 42.575C77.1064 42.5417 76.6981 42.525 76.1814 42.525C75.7814 42.525 75.3481 42.5333 74.8814 42.55C74.4314 42.5667 73.9314 42.6167 73.3814 42.7V40.85C73.9648 40.9 74.4648 40.9417 74.8814 40.975C75.3148 40.9917 75.7314 41 76.1314 41C76.6481 41 77.0648 40.9917 77.3814 40.975C77.6981 40.9417 77.9898 40.9083 78.2564 40.875C78.5398 40.825 78.8731 40.775 79.2564 40.725ZM79.9814 38.65C79.9648 39.15 79.9398 39.65 79.9064 40.15C79.8898 40.6333 79.8814 41.1417 79.8814 41.675C79.8814 42.225 79.8898 42.8167 79.9064 43.45C79.9398 44.0667 79.9648 44.55 79.9814 44.9H78.6064L77.7814 42.3V41.225L78.6064 38.65H79.9814ZM83.0314 50C81.5648 49.95 78.4064 49.925 73.5564 49.925C72.9731 49.925 72.4064 49.9333 71.8564 49.95C71.3064 49.95 70.5731 49.9667 69.6564 50L69.3564 49.05L71.5564 48.525C71.5898 47.175 71.6148 45.85 71.6314 44.55C71.6648 43.2333 71.6814 41.9167 71.6814 40.6C71.6814 39.55 71.6648 38.5833 71.6314 37.7C71.6148 36.8167 71.5898 35.9417 71.5564 35.075L69.3564 34.475L69.6814 33.5C70.5148 33.5333 71.2648 33.5583 71.9314 33.575C72.5981 33.5917 73.1731 33.6 73.6564 33.6C74.1398 33.6 74.7231 33.6 75.4064 33.6C76.0898 33.6 76.8064 33.6 77.5564 33.6C78.3064 33.5833 79.0314 33.575 79.7314 33.575C80.4314 33.5583 81.0481 33.55 81.5814 33.55C82.1314 33.5333 82.5314 33.5167 82.7814 33.5C82.7314 34.55 82.6898 35.4833 82.6564 36.3C82.6231 37.1 82.5981 37.8167 82.5814 38.45H80.9814L80.5314 35.825C80.1148 35.6083 79.6148 35.45 79.0314 35.35C78.4481 35.25 77.8314 35.2 77.1814 35.2C76.8814 35.2 76.5731 35.2167 76.2564 35.25C75.9564 35.2667 75.6481 35.2917 75.3314 35.325C75.3148 36.825 75.2981 38.2417 75.2814 39.575C75.2814 40.9083 75.2814 42.1917 75.2814 43.425C75.2814 44.1917 75.2814 44.975 75.2814 45.775C75.2981 46.575 75.3148 47.4083 75.3314 48.275C75.6148 48.3083 75.9064 48.3417 76.2064 48.375C76.5064 48.3917 76.8064 48.4 77.1064 48.4C77.7731 48.4 78.4231 48.35 79.0564 48.25C79.6898 48.15 80.2148 47.9917 80.6314 47.775L81.2064 44.75H82.8064C82.8064 45.5167 82.8231 46.375 82.8564 47.325C82.9064 48.2583 82.9648 49.15 83.0314 50ZM92.8205 33.25C94.1038 33.25 95.2372 33.4833 96.2205 33.95C97.2038 34.4167 98.0288 35.05 98.6955 35.85C99.3788 36.6333 99.8955 37.525 100.246 38.525C100.596 39.5083 100.771 40.525 100.771 41.575C100.771 42.725 100.612 43.8167 100.296 44.85C99.9788 45.8833 99.4955 46.8083 98.8455 47.625C98.2122 48.4417 97.3955 49.0833 96.3955 49.55C95.4122 50.0167 94.2538 50.25 92.9205 50.25C91.5872 50.25 90.4122 50.0167 89.3955 49.55C88.3955 49.0667 87.5622 48.425 86.8955 47.625C86.2288 46.8083 85.7288 45.8833 85.3955 44.85C85.0622 43.8 84.8955 42.7 84.8955 41.55C84.8955 40.05 85.1788 38.675 85.7455 37.425C86.3288 36.1583 87.2038 35.15 88.3705 34.4C89.5538 33.6333 91.0372 33.25 92.8205 33.25ZM97.3205 42.6C97.3205 41.5667 97.1955 40.575 96.9455 39.625C96.7122 38.675 96.3788 37.8333 95.9455 37.1C95.5122 36.35 94.9872 35.7583 94.3705 35.325C93.7705 34.8917 93.0955 34.675 92.3455 34.675C91.4122 34.675 90.6455 34.9667 90.0455 35.55C89.4622 36.1167 89.0288 36.8583 88.7455 37.775C88.4788 38.6917 88.3455 39.6833 88.3455 40.75C88.3455 41.7833 88.4622 42.7833 88.6955 43.75C88.9455 44.7167 89.2955 45.5833 89.7455 46.35C90.1955 47.1167 90.7288 47.725 91.3455 48.175C91.9622 48.6083 92.6372 48.825 93.3705 48.825C94.3205 48.825 95.0788 48.5333 95.6455 47.95C96.2288 47.35 96.6538 46.575 96.9205 45.625C97.1872 44.675 97.3205 43.6667 97.3205 42.6Z" fill="white"/>
<path d="M113.025 23.675C113.058 23.1917 113.083 22.7667 113.1 22.4C113.117 22.0167 113.125 21.6417 113.125 21.275C113.125 20.9083 113.117 20.55 113.1 20.2C113.083 19.85 113.05 19.5 113 19.15L110.775 18.475L111.05 17.55C111.617 17.5833 112.233 17.6083 112.9 17.625C113.567 17.6417 114.267 17.65 115 17.65C115.633 17.65 116.242 17.6417 116.825 17.625C117.425 17.6083 118.025 17.5833 118.625 17.55L118.95 18.475L116.75 19.15C116.733 19.55 116.717 19.9583 116.7 20.375C116.683 20.775 116.683 21.1917 116.7 21.625C116.7 22.125 116.717 22.65 116.75 23.2C116.8 23.7333 116.833 24.3167 116.85 24.95C115.883 25.25 114.908 25.5333 113.925 25.8C112.942 26.05 111.775 26.175 110.425 26.175C108.925 26.175 107.642 25.9417 106.575 25.475C105.525 24.9917 104.675 24.3583 104.025 23.575C103.375 22.775 102.892 21.8833 102.575 20.9C102.275 19.9 102.125 18.875 102.125 17.825C102.125 16.725 102.292 15.6667 102.625 14.65C102.958 13.6167 103.467 12.6917 104.15 11.875C104.833 11.0583 105.708 10.4167 106.775 9.95C107.858 9.46667 109.133 9.225 110.6 9.225C111.65 9.225 112.658 9.31667 113.625 9.5C114.608 9.66667 115.6 9.98333 116.6 10.45C116.433 11.2167 116.275 11.975 116.125 12.725C115.975 13.475 115.842 14.2417 115.725 15.025H114.05L113.55 11.725C112.75 11.3917 112 11.1583 111.3 11.025C110.6 10.8917 109.767 10.825 108.8 10.825C107.883 11.4917 107.208 12.3833 106.775 13.5C106.342 14.6167 106.125 15.9083 106.125 17.375C106.125 18.275 106.208 19.1583 106.375 20.025C106.558 20.8917 106.825 21.675 107.175 22.375C107.542 23.075 108 23.6333 108.55 24.05C109.117 24.4667 109.783 24.675 110.55 24.675C111.05 24.675 111.492 24.5917 111.875 24.425C112.258 24.2417 112.642 23.9917 113.025 23.675ZM128.557 9.5C129.807 9.5 130.824 9.7 131.607 10.1C132.407 10.4833 132.999 11 133.382 11.65C133.765 12.2833 133.957 12.9833 133.957 13.75C133.957 14.3167 133.84 14.9083 133.607 15.525C133.39 16.1417 133.04 16.7167 132.557 17.25C132.074 17.7667 131.44 18.1917 130.657 18.525C129.874 18.8417 128.932 19 127.832 19C127.265 19 126.757 18.9833 126.307 18.95C125.857 18.9167 125.357 18.8417 124.807 18.725V17.15C125.34 17.2667 125.824 17.3667 126.257 17.45C126.69 17.5167 127.107 17.55 127.507 17.55C127.707 17.55 127.899 17.5417 128.082 17.525C128.282 17.4917 128.49 17.4583 128.707 17.425C129.09 17.125 129.415 16.7167 129.682 16.2C129.949 15.6833 130.082 14.925 130.082 13.925C130.082 12.925 129.824 12.1667 129.307 11.65C128.807 11.1333 128.19 10.875 127.457 10.875C126.99 10.875 126.482 10.95 125.932 11.1C125.932 12.0333 125.932 12.9083 125.932 13.725C125.932 14.525 125.932 15.2917 125.932 16.025C125.932 17.4583 125.932 18.8333 125.932 20.15C125.932 21.4667 125.932 22.925 125.932 24.525L128.132 25.05L127.782 26C127.349 25.9667 126.857 25.95 126.307 25.95C125.757 25.9333 124.965 25.925 123.932 25.925C123.165 25.925 122.499 25.9333 121.932 25.95C121.382 25.9667 120.849 25.9833 120.332 26L119.957 25.05L122.157 24.525C122.207 23.3917 122.24 22.2833 122.257 21.2C122.274 20.1167 122.282 19.0833 122.282 18.1C122.282 16.8 122.265 15.5667 122.232 14.4C122.215 13.2167 122.19 12.1167 122.157 11.1L119.957 10.45L120.232 9.5C120.582 9.51667 120.99 9.53333 121.457 9.55C121.94 9.56667 122.415 9.58333 122.882 9.6C123.349 9.6 123.732 9.6 124.032 9.6C124.549 9.6 124.999 9.59167 125.382 9.575C125.765 9.55833 126.19 9.54167 126.657 9.525C127.14 9.50833 127.774 9.5 128.557 9.5ZM129.707 17.825C129.957 18.2583 130.332 18.8583 130.832 19.625C131.349 20.375 131.932 21.1833 132.582 22.05C133.232 22.9167 133.882 23.7417 134.532 24.525L136.782 25.05L136.382 26C136.082 25.9667 135.657 25.95 135.107 25.95C134.574 25.95 134.09 25.95 133.657 25.95C133.24 25.95 132.74 25.95 132.157 25.95C131.574 25.95 131.115 25.9667 130.782 26C130.432 25.3667 130.04 24.675 129.607 23.925C129.174 23.175 128.74 22.4333 128.307 21.7C127.874 20.95 127.482 20.2833 127.132 19.7C126.782 19.1 126.507 18.6583 126.307 18.375C126.457 18.2083 126.699 18.0917 127.032 18.025C127.382 17.9417 127.749 17.8917 128.132 17.875C128.532 17.8417 128.882 17.825 129.182 17.825C129.482 17.825 129.657 17.825 129.707 17.825ZM155.69 9.5L156.04 10.475L153.84 11C153.723 12.8667 153.623 14.6167 153.54 16.25C153.473 17.8667 153.398 19.2917 153.315 20.525C153.248 21.575 153.007 22.4583 152.59 23.175C152.19 23.8917 151.673 24.4667 151.04 24.9C150.423 25.3333 149.74 25.65 148.99 25.85C148.24 26.05 147.49 26.15 146.74 26.15C145.523 26.15 144.415 25.9833 143.415 25.65C142.415 25.3167 141.598 24.775 140.965 24.025C140.348 23.2583 139.965 22.225 139.815 20.925C139.732 20.1417 139.682 19.225 139.665 18.175C139.648 17.125 139.64 16 139.64 14.8C139.64 13.5833 139.623 12.3583 139.59 11.125L137.34 10.475L137.64 9.5C138.157 9.51667 138.757 9.54167 139.44 9.575C140.14 9.59167 140.815 9.6 141.465 9.6C142.282 9.6 143.015 9.59167 143.665 9.575C144.315 9.54167 144.857 9.51667 145.29 9.5L145.59 10.475L143.365 11.125C143.315 12.425 143.29 13.6917 143.29 14.925C143.29 16.175 143.307 17.3 143.34 18.3C143.39 19.2833 143.432 20.0333 143.465 20.55C143.582 21.8167 143.957 22.7833 144.59 23.45C145.24 24.1167 146.148 24.45 147.315 24.45C148.548 24.45 149.523 24.1417 150.24 23.525C150.973 22.8917 151.415 21.8917 151.565 20.525C151.598 20.1583 151.623 19.675 151.64 19.075C151.657 18.4583 151.665 17.8 151.665 17.1C151.665 16.2167 151.648 15.2417 151.615 14.175C151.598 13.0917 151.548 12.0333 151.465 11L149.215 10.475L149.565 9.5C150.065 9.53333 150.582 9.55833 151.115 9.575C151.648 9.59167 152.132 9.6 152.565 9.6C153.098 9.6 153.673 9.59167 154.29 9.575C154.907 9.54167 155.373 9.51667 155.69 9.5ZM165.517 9.5C167.384 9.5 168.767 9.93333 169.667 10.8C170.567 11.65 171.017 12.775 171.017 14.175C171.017 15.2417 170.75 16.1833 170.217 17C169.7 17.8 168.95 18.425 167.967 18.875C167 19.325 165.842 19.55 164.492 19.55C164.192 19.55 163.825 19.525 163.392 19.475C162.959 19.425 162.5 19.35 162.017 19.25V17.675C162.567 17.7917 163.034 17.8917 163.417 17.975C163.817 18.0417 164.167 18.075 164.467 18.075C164.7 18.075 164.917 18.0667 165.117 18.05C165.317 18.0167 165.509 17.9833 165.692 17.95C166.225 17.6 166.617 17.1167 166.867 16.5C167.134 15.8667 167.267 15.2 167.267 14.5C167.267 13.9 167.175 13.3333 166.992 12.8C166.809 12.25 166.534 11.8083 166.167 11.475C165.8 11.125 165.35 10.95 164.817 10.95C164.484 10.95 164.175 10.975 163.892 11.025C163.609 11.0583 163.359 11.0917 163.142 11.125C163.142 11.5917 163.142 12.2 163.142 12.95C163.142 13.6833 163.142 14.45 163.142 15.25C163.142 16.05 163.142 16.7917 163.142 17.475C163.142 18.1583 163.142 18.6833 163.142 19.05C163.142 19.6167 163.142 20.075 163.142 20.425C163.142 20.7583 163.142 21.0417 163.142 21.275C163.142 21.4917 163.142 21.725 163.142 21.975C163.142 22.2083 163.142 22.5167 163.142 22.9C163.142 23.2667 163.142 23.7667 163.142 24.4L165.892 25.05L165.542 26C164.675 25.95 163.25 25.925 161.267 25.925C160.45 25.925 159.734 25.9333 159.117 25.95C158.5 25.9667 157.934 25.9833 157.417 26L157.042 25.05L159.367 24.525C159.4 23.775 159.425 22.9333 159.442 22C159.459 21.05 159.467 20.1167 159.467 19.2C159.484 18.2833 159.492 17.5 159.492 16.85C159.492 15.9833 159.484 15.25 159.467 14.65C159.467 14.0333 159.459 13.4583 159.442 12.925C159.425 12.375 159.4 11.7667 159.367 11.1L157.142 10.45L157.417 9.5C157.934 9.51667 158.384 9.53333 158.767 9.55C159.15 9.56667 159.534 9.58333 159.917 9.6C160.317 9.6 160.759 9.6 161.242 9.6C161.759 9.6 162.225 9.59167 162.642 9.575C163.059 9.55833 163.484 9.54167 163.917 9.525C164.367 9.50833 164.9 9.5 165.517 9.5ZM180.946 9.25C182.229 9.25 183.362 9.48333 184.346 9.95C185.329 10.4167 186.154 11.05 186.821 11.85C187.504 12.6333 188.021 13.525 188.371 14.525C188.721 15.5083 188.896 16.525 188.896 17.575C188.896 18.725 188.737 19.8167 188.421 20.85C188.104 21.8833 187.621 22.8083 186.971 23.625C186.337 24.4417 185.521 25.0833 184.521 25.55C183.537 26.0167 182.379 26.25 181.046 26.25C179.712 26.25 178.537 26.0167 177.521 25.55C176.521 25.0667 175.687 24.425 175.021 23.625C174.354 22.8083 173.854 21.8833 173.521 20.85C173.187 19.8 173.021 18.7 173.021 17.55C173.021 16.05 173.304 14.675 173.871 13.425C174.454 12.1583 175.329 11.15 176.496 10.4C177.679 9.63333 179.162 9.25 180.946 9.25ZM185.446 18.6C185.446 17.5667 185.321 16.575 185.071 15.625C184.837 14.675 184.504 13.8333 184.071 13.1C183.637 12.35 183.112 11.7583 182.496 11.325C181.896 10.8917 181.221 10.675 180.471 10.675C179.537 10.675 178.771 10.9667 178.171 11.55C177.587 12.1167 177.154 12.8583 176.871 13.775C176.604 14.6917 176.471 15.6833 176.471 16.75C176.471 17.7833 176.587 18.7833 176.821 19.75C177.071 20.7167 177.421 21.5833 177.871 22.35C178.321 23.1167 178.854 23.725 179.471 24.175C180.087 24.6083 180.762 24.825 181.496 24.825C182.446 24.825 183.204 24.5333 183.771 23.95C184.354 23.35 184.779 22.575 185.046 21.625C185.312 20.675 185.446 19.6667 185.446 18.6Z" fill="white"/>
</svg>
